{
  "source": "C:\\Users\\Peter\\Desktop\\stuff\\MIUN\\quantitative_research\\video_compression\\videos\\BVI-HD\\TreeGrassFamily_1920x1080_30fps.mp4",
  "output": "C:\\Users\\Peter\\Desktop\\stuff\\MIUN\\quantitative_research\\video_compression\\compressed_videos\\BVI-HD\\hevc\\12\\TreeGrassFamily_1920x1080_30fps_hevc.mp4",
  "codec": "hevc",
  "ok": "Input #0, mov,mp4,m4a,3gp,3g2,mj2, from 'C:\\Users\\Peter\\Desktop\\stuff\\MIUN\\quantitative_research\\video_compression\\videos\\BVI-HD\\TreeGrassFamily_1920x1080_30fps.mp4':\n  Metadata:\n    major_brand     : isom\n    minor_version   : 512\n    compatible_brands: isomiso2avc1mp41\n    encoder         : Lavf54.28.101\n  Duration: 00:00:05.00, start: 0.000000, bitrate: 331787 kb/s\n  Stream #0:0[0x1](und): Video: h264 (High 4:4:4 Predictive) (avc1 / 0x31637661), yuv420p(progressive), 1920x1080, 331784 kb/s, 30 fps, 30 tbr, 30 tbn (default)\n    Metadata:\n      handler_name    : VideoHandler\n      vendor_id       : [0][0][0][0]\n[out#0/mp4 @ 000002898696ac80] Codec AVOption b:a (set bitrate (in bits/s)) has not been used for any stream. The most likely reason is either wrong type (e.g. a video option with no video streams) or that it is a private option of some decoder which was not actually used for any stream.\nStream mapping:\n  Stream #0:0 -> #0:0 (h264 (native) -> hevc (libx265))\nPress [q] to stop, [?] for help\n[libx265 @ 00000289877875c0] Unknown option: \"aq-mode.\nx265 [info]: HEVC encoder version 4.1+190-8f11c33ac\nx265 [info]: build info [Windows][GCC 15.1.0][64 bit] 10bit\nx265 [info]: using cpu capabilities: MMX2 SSE2Fast LZCNT SSSE3 SSE4.2 AVX FMA3 BMI2 AVX2\nx265 [info]: Main 10 profile, Level-4 (Main tier)\nx265 [info]: Thread pool created using 12 threads\nx265 [info]: Slices                              : 1\nx265 [info]: frame threads / pool features       : 3 / wpp(17 rows)\nx265 [info]: Coding QT: max CU size, min CU size : 64 / 8\nx265 [info]: Residual QT: max TU size, max depth : 32 / 1 inter / 1 intra\nx265 [info]: ME / range / subpel / merge         : star / 57 / 3 / 3\nx265 [info]: Keyframe min / max / scenecut / bias  : 25 / 250 / 40 / 5.00 \nx265 [info]: Lookahead / bframes / badapt        : 25 / 4 / 2\nx265 [info]: b-pyramid / weightp / weightb       : 1 / 1 / 0\nx265 [info]: References / ref-limit  cu / depth  : 4 / on / on\nx265 [info]: AQ: mode / str / qg-size / cu-tree  : 2 / 1.0 / 32 / 1\nx265 [info]: Rate Control / qCompress            : ABR-12000 kbps / 0.60\nx265 [info]: VBV/HRD buffer / max-rate / init    : 12000 / 12000 / 0.750\nx265 [info]: tools: rect limit-modes rd=4 psy-rd=2.00 rdoq=2 psy-rdoq=1.00\nx265 [info]: tools: rskip mode=1 signhide tmvp strong-intra-smoothing lslices=4\nx265 [info]: tools: deblock sao dhdr10-info\nOutput #0, mp4, to 'C:\\Users\\Peter\\Desktop\\stuff\\MIUN\\quantitative_research\\video_compression\\compressed_videos\\BVI-HD\\hevc\\12\\TreeGrassFamily_1920x1080_30fps_hevc.mp4':\n  Metadata:\n    major_brand     : isom\n    minor_version   : 512\n    compatible_brands: isomiso2avc1mp41\n    encoder         : Lavf62.3.100\n  Stream #0:0(und): Video: hevc (hev1 / 0x31766568), yuv420p10le(tv, progressive), 1920x1080, q=2-31, 12000 kb/s, 30 fps, 15360 tbn (default)\n    Metadata:\n      encoder         : Lavc62.11.100 libx265\n      handler_name    : VideoHandler\n      vendor_id       : [0][0][0][0]\n    Side data:\n      cpb: bitrate max/min/avg: 12000000/0/12000000 buffer size: 12000000 vbv_delay: N/A\nframe=    0 fps=0.0 q=0.0 size=       0KiB time=N/A bitrate=N/A speed=N/A elapsed=0:00:01.05    \nframe=    0 fps=0.0 q=0.0 size=       0KiB time=N/A bitrate=N/A speed=N/A elapsed=0:00:01.66    \nframe=    0 fps=0.0 q=0.0 size=       0KiB time=N/A bitrate=N/A speed=N/A elapsed=0:00:02.26    \nframe=    0 fps=0.0 q=0.0 size=       0KiB time=N/A bitrate=N/A speed=N/A elapsed=0:00:02.78    \nframe=    0 fps=0.0 q=0.0 size=       0KiB time=N/A bitrate=N/A speed=N/A elapsed=0:00:03.37    \nframe=    0 fps=0.0 q=0.0 size=       0KiB time=N/A bitrate=N/A speed=N/A elapsed=0:00:03.90    \nframe=    0 fps=0.0 q=0.0 size=       0KiB time=N/A bitrate=N/A speed=N/A elapsed=0:00:04.43    \nframe=    0 fps=0.0 q=0.0 size=       0KiB time=N/A bitrate=N/A speed=N/A elapsed=0:00:04.96    \nframe=    0 fps=0.0 q=0.0 size=       0KiB time=N/A bitrate=N/A speed=N/A elapsed=0:00:05.48    \nframe=    0 fps=0.0 q=0.0 size=       0KiB time=N/A bitrate=N/A speed=N/A elapsed=0:00:05.99    \nframe=    0 fps=0.0 q=0.0 size=       0KiB time=N/A bitrate=N/A speed=N/A elapsed=0:00:06.53    \nframe=    0 fps=0.0 q=0.0 size=       0KiB time=N/A bitrate=N/A speed=N/A elapsed=0:00:07.06    \nframe=    0 fps=0.0 q=0.0 size=       0KiB time=N/A bitrate=N/A speed=N/A elapsed=0:00:07.59    \nframe=    0 fps=0.0 q=0.0 size=       0KiB time=N/A bitrate=N/A speed=N/A elapsed=0:00:08.14    \nframe=    0 fps=0.0 q=0.0 size=       0KiB time=N/A bitrate=N/A speed=N/A elapsed=0:00:08.65    \nframe=    0 fps=0.0 q=0.0 size=       0KiB time=N/A bitrate=N/A speed=N/A elapsed=0:00:09.16    \nframe=    0 fps=0.0 q=0.0 size=       0KiB time=N/A bitrate=N/A speed=N/A elapsed=0:00:09.69    \nframe=    0 fps=0.0 q=0.0 size=       0KiB time=N/A bitrate=N/A speed=N/A elapsed=0:00:10.22    \nframe=    0 fps=0.0 q=0.0 size=       0KiB time=N/A bitrate=N/A speed=N/A elapsed=0:00:10.74    \nframe=    0 fps=0.0 q=0.0 size=       0KiB time=N/A bitrate=N/A speed=N/A elapsed=0:00:11.26    \nframe=    0 fps=0.0 q=0.0 size=       0KiB time=N/A bitrate=N/A speed=N/A elapsed=0:00:11.79    \nframe=    0 fps=0.0 q=0.0 size=       0KiB time=N/A bitrate=N/A speed=N/A elapsed=0:00:12.33    \nframe=    0 fps=0.0 q=0.0 size=       0KiB time=N/A bitrate=N/A speed=N/A elapsed=0:00:12.86    \nframe=    0 fps=0.0 q=0.0 size=       0KiB time=N/A bitrate=N/A speed=N/A elapsed=0:00:13.39    \nframe=    0 fps=0.0 q=0.0 size=       0KiB time=N/A bitrate=N/A speed=N/A elapsed=0:00:13.93    \nframe=    0 fps=0.0 q=0.0 size=       0KiB time=N/A bitrate=N/A speed=N/A elapsed=0:00:14.44    \nframe=    0 fps=0.0 q=0.0 size=       0KiB time=N/A bitrate=N/A speed=N/A elapsed=0:00:14.97    \nframe=    0 fps=0.0 q=0.0 size=       0KiB time=N/A bitrate=N/A speed=N/A elapsed=0:00:15.51    \nframe=    0 fps=0.0 q=0.0 size=       0KiB time=N/A bitrate=N/A speed=N/A elapsed=0:00:16.04    \nframe=    0 fps=0.0 q=0.0 size=       0KiB time=N/A bitrate=N/A speed=N/A elapsed=0:00:16.56    \nframe=    0 fps=0.0 q=0.0 size=       0KiB time=N/A bitrate=N/A speed=N/A elapsed=0:00:17.09    \nframe=    0 fps=0.0 q=0.0 size=       0KiB time=N/A bitrate=N/A speed=N/A elapsed=0:00:17.62    \nframe=    0 fps=0.0 q=0.0 size=       0KiB time=N/A bitrate=N/A speed=N/A elapsed=0:00:18.14    \nframe=    0 fps=0.0 q=0.0 size=       0KiB time=N/A bitrate=N/A speed=N/A elapsed=0:00:18.67    \nframe=    0 fps=0.0 q=0.0 size=       0KiB time=N/A bitrate=N/A speed=N/A elapsed=0:00:19.19    \nframe=    0 fps=0.0 q=0.0 size=       0KiB time=N/A bitrate=N/A speed=N/A elapsed=0:00:19.73    \nframe=    0 fps=0.0 q=0.0 size=       0KiB time=N/A bitrate=N/A speed=N/A elapsed=0:00:20.23    \nframe=    0 fps=0.0 q=0.0 size=       0KiB time=N/A bitrate=N/A speed=N/A elapsed=0:00:20.76    \nframe=    0 fps=0.0 q=0.0 size=       0KiB time=N/A bitrate=N/A speed=N/A elapsed=0:00:21.30    \nframe=    0 fps=0.0 q=0.0 size=       0KiB time=N/A bitrate=N/A speed=N/A elapsed=0:00:21.85    \nframe=    0 fps=0.0 q=0.0 size=       0KiB time=N/A bitrate=N/A speed=N/A elapsed=0:00:22.37    \nframe=    1 fps=0.0 q=25.7 size=       0KiB time=-00:00:00.03 bitrate=N/A speed=N/A elapsed=0:00:22.89    \nframe=    1 fps=0.0 q=25.7 size=       0KiB time=-00:00:00.03 bitrate=N/A speed=N/A elapsed=0:00:23.43    \nframe=    1 fps=0.0 q=25.7 size=       0KiB time=-00:00:00.03 bitrate=N/A speed=N/A elapsed=0:00:23.96    \nframe=    1 fps=0.0 q=25.7 size=       0KiB time=-00:00:00.03 bitrate=N/A speed=N/A elapsed=0:00:24.49    \nframe=    1 fps=0.0 q=25.7 size=       0KiB time=-00:00:00.03 bitrate=N/A speed=N/A elapsed=0:00:25.02    \nframe=    2 fps=0.1 q=29.7 size=       0KiB time=00:00:00.00 bitrate=N/A speed=   0x elapsed=0:00:25.55    \nframe=    2 fps=0.1 q=29.7 size=       0KiB time=00:00:00.00 bitrate=N/A speed=   0x elapsed=0:00:26.09    \nframe=    2 fps=0.1 q=29.7 size=       0KiB time=00:00:00.00 bitrate=N/A speed=   0x elapsed=0:00:26.60    \nframe=    2 fps=0.1 q=29.7 size=       0KiB time=00:00:00.00 bitrate=N/A speed=   0x elapsed=0:00:27.14    \nframe=    3 fps=0.1 q=34.1 size=     256KiB time=00:00:00.03 bitrate=62925.7kbits/s speed=0.00121x elapsed=0:00:27.66    \nframe=    3 fps=0.1 q=34.1 size=     256KiB time=00:00:00.03 bitrate=62925.7kbits/s speed=0.00118x elapsed=0:00:28.18    \nframe=    3 fps=0.1 q=34.1 size=     256KiB time=00:00:00.03 bitrate=62925.7kbits/s speed=0.00116x elapsed=0:00:28.70    \nframe=    4 fps=0.1 q=35.3 size=     256KiB time=00:00:00.06 bitrate=31462.4kbits/s speed=0.00228x elapsed=0:00:29.22    \nframe=    4 fps=0.1 q=35.3 size=     256KiB time=00:00:00.06 bitrate=31462.4kbits/s speed=0.00224x elapsed=0:00:29.75    \nframe=    4 fps=0.1 q=35.3 size=     256KiB time=00:00:00.06 bitrate=31462.4kbits/s speed=0.0022x elapsed=0:00:30.28    \nframe=    4 fps=0.1 q=35.3 size=     256KiB time=00:00:00.06 bitrate=31462.4kbits/s speed=0.00216x elapsed=0:00:30.83    \nframe=    4 fps=0.1 q=35.3 size=     256KiB time=00:00:00.06 bitrate=31462.4kbits/s speed=0.00213x elapsed=0:00:31.36    \nframe=    5 fps=0.2 q=35.2 size=     256KiB time=00:00:00.10 bitrate=20975.0kbits/s speed=0.00314x elapsed=0:00:31.88    \nframe=    5 fps=0.2 q=35.2 size=     256KiB time=00:00:00.10 bitrate=20975.0kbits/s speed=0.00308x elapsed=0:00:32.41    \nframe=    5 fps=0.2 q=35.2 size=     256KiB time=00:00:00.10 bitrate=20975.0kbits/s speed=0.00303x elapsed=0:00:32.97    \nframe=    6 fps=0.2 q=35.4 size=     256KiB time=00:00:00.13 bitrate=15731.3kbits/s speed=0.00398x elapsed=0:00:33.50    \nframe=    6 fps=0.2 q=35.4 size=     256KiB time=00:00:00.13 bitrate=15731.3kbits/s speed=0.00392x elapsed=0:00:34.05    \nframe=    6 fps=0.2 q=35.4 size=     256KiB time=00:00:00.13 bitrate=15731.3kbits/s speed=0.00385x elapsed=0:00:34.59    \nframe=    6 fps=0.2 q=35.4 size=     256KiB time=00:00:00.13 bitrate=15731.3kbits/s speed=0.0038x elapsed=0:00:35.11    \nframe=    6 fps=0.2 q=35.4 size=     256KiB time=00:00:00.13 bitrate=15731.3kbits/s speed=0.00374x elapsed=0:00:35.65    \nframe=    6 fps=0.2 q=35.4 size=     256KiB time=00:00:00.13 bitrate=15731.3kbits/s speed=0.00368x elapsed=0:00:36.18    \nframe=    6 fps=0.2 q=35.4 size=     256KiB time=00:00:00.13 bitrate=15731.3kbits/s speed=0.00363x elapsed=0:00:36.71    \nframe=    6 fps=0.2 q=35.4 size=     256KiB time=00:00:00.13 bitrate=15731.3kbits/s speed=0.00358x elapsed=0:00:37.23    \nframe=    7 fps=0.2 q=29.8 size=     256KiB time=00:00:00.16 bitrate=12585.0kbits/s speed=0.00441x elapsed=0:00:37.76    \nframe=    7 fps=0.2 q=29.8 size=     256KiB time=00:00:00.16 bitrate=12585.0kbits/s speed=0.00435x elapsed=0:00:38.31    \nframe=    7 fps=0.2 q=29.8 size=     256KiB time=00:00:00.16 bitrate=12585.0kbits/s speed=0.00429x elapsed=0:00:38.85    \nframe=    7 fps=0.2 q=29.8 size=     256KiB time=00:00:00.16 bitrate=12585.0kbits/s speed=0.00423x elapsed=0:00:39.38    \nframe=    7 fps=0.2 q=29.8 size=     256KiB time=00:00:00.16 bitrate=12585.0kbits/s speed=0.00417x elapsed=0:00:39.95    \nframe=    8 fps=0.2 q=32.6 size=     512KiB time=00:00:00.20 bitrate=20973.3kbits/s speed=0.00494x elapsed=0:00:40.45    \nframe=    8 fps=0.2 q=32.6 size=     512KiB time=00:00:00.20 bitrate=20973.3kbits/s speed=0.00488x elapsed=0:00:40.98    \nframe=    8 fps=0.2 q=32.6 size=     512KiB time=00:00:00.20 bitrate=20973.3kbits/s speed=0.00482x elapsed=0:00:41.53    \nframe=    8 fps=0.2 q=32.6 size=     512KiB time=00:00:00.20 bitrate=20973.3kbits/s speed=0.00475x elapsed=0:00:42.06    \nframe=    8 fps=0.2 q=32.6 size=     512KiB time=00:00:00.20 bitrate=20973.3kbits/s speed=0.00469x elapsed=0:00:42.61    \nframe=    9 fps=0.2 q=35.3 size=     512KiB time=00:00:00.23 bitrate=17977.1kbits/s speed=0.00541x elapsed=0:00:43.13    \nframe=    9 fps=0.2 q=35.3 size=     512KiB time=00:00:00.23 bitrate=17977.1kbits/s speed=0.00534x elapsed=0:00:43.65    \nframe=    9 fps=0.2 q=35.3 size=     512KiB time=00:00:00.23 bitrate=17977.1kbits/s speed=0.00528x elapsed=0:00:44.17    \nframe=    9 fps=0.2 q=35.3 size=     512KiB time=00:00:00.23 bitrate=17977.1kbits/s speed=0.00522x elapsed=0:00:44.69    \nframe=   10 fps=0.2 q=35.4 size=     512KiB time=00:00:00.26 bitrate=15729.9kbits/s speed=0.0059x elapsed=0:00:45.21    \nframe=   10 fps=0.2 q=35.4 size=     512KiB time=00:00:00.26 bitrate=15729.9kbits/s speed=0.00583x elapsed=0:00:45.72    \nframe=   10 fps=0.2 q=35.4 size=     512KiB time=00:00:00.26 bitrate=15729.9kbits/s speed=0.00577x elapsed=0:00:46.24    \nframe=   10 fps=0.2 q=35.4 size=     512KiB time=00:00:00.26 bitrate=15729.9kbits/s speed=0.0057x elapsed=0:00:46.78    \nframe=   11 fps=0.2 q=29.9 size=     512KiB time=00:00:00.30 bitrate=13982.2kbits/s speed=0.00634x elapsed=0:00:47.28    \nframe=   11 fps=0.2 q=29.9 size=     512KiB time=00:00:00.30 bitrate=13982.2kbits/s speed=0.00628x elapsed=0:00:47.80    \nframe=   11 fps=0.2 q=29.9 size=     512KiB time=00:00:00.30 bitrate=13982.2kbits/s speed=0.00621x elapsed=0:00:48.34    \nframe=   12 fps=0.2 q=32.8 size=     512KiB time=00:00:00.33 bitrate=12584.0kbits/s speed=0.00682x elapsed=0:00:48.84    \nframe=   12 fps=0.2 q=32.8 size=     512KiB time=00:00:00.33 bitrate=12584.0kbits/s speed=0.00675x elapsed=0:00:49.36    \nframe=   12 fps=0.2 q=32.8 size=     512KiB time=00:00:00.33 bitrate=12584.0kbits/s speed=0.00668x elapsed=0:00:49.89    \nframe=   12 fps=0.2 q=32.8 size=     512KiB time=00:00:00.33 bitrate=12584.0kbits/s speed=0.00661x elapsed=0:00:50.41    \nframe=   12 fps=0.2 q=32.8 size=     512KiB time=00:00:00.33 bitrate=12584.0kbits/s speed=0.00654x elapsed=0:00:50.94    \nframe=   12 fps=0.2 q=32.8 size=     512KiB time=00:00:00.33 bitrate=12584.0kbits/s speed=0.00648x elapsed=0:00:51.45    \nframe=   13 fps=0.3 q=35.4 size=     768KiB time=00:00:00.36 bitrate=17159.5kbits/s speed=0.00705x elapsed=0:00:51.99    \nframe=   13 fps=0.2 q=35.4 size=     768KiB time=00:00:00.36 bitrate=17159.5kbits/s speed=0.00698x elapsed=0:00:52.52    \nframe=   13 fps=0.2 q=35.4 size=     768KiB time=00:00:00.36 bitrate=17159.5kbits/s speed=0.00691x elapsed=0:00:53.05    \nframe=   13 fps=0.2 q=35.4 size=     768KiB time=00:00:00.36 bitrate=17159.5kbits/s speed=0.00684x elapsed=0:00:53.59    \nframe=   14 fps=0.3 q=35.5 size=     768KiB time=00:00:00.40 bitrate=15729.5kbits/s speed=0.00739x elapsed=0:00:54.12    \nframe=   14 fps=0.3 q=35.5 size=     768KiB time=00:00:00.40 bitrate=15729.5kbits/s speed=0.00732x elapsed=0:00:54.63    \nframe=   14 fps=0.3 q=35.5 size=     768KiB time=00:00:00.40 bitrate=15729.5kbits/s speed=0.00725x elapsed=0:00:55.15    \nframe=   14 fps=0.3 q=35.5 size=     768KiB time=00:00:00.40 bitrate=15729.5kbits/s speed=0.00718x elapsed=0:00:55.68    \nframe=   15 fps=0.3 q=29.8 size=     768KiB time=00:00:00.43 bitrate=14519.6kbits/s speed=0.00771x elapsed=0:00:56.20    \nframe=   16 fps=0.3 q=32.9 size=     768KiB time=00:00:00.46 bitrate=13482.4kbits/s speed=0.00822x elapsed=0:00:56.73    \nframe=   16 fps=0.3 q=32.9 size=     768KiB time=00:00:00.46 bitrate=13482.4kbits/s speed=0.00815x elapsed=0:00:57.26    \nframe=   16 fps=0.3 q=32.9 size=     768KiB time=00:00:00.46 bitrate=13482.4kbits/s speed=0.00808x elapsed=0:00:57.77    \nframe=   16 fps=0.3 q=32.9 size=     768KiB time=00:00:00.46 bitrate=13482.4kbits/s speed=0.008x elapsed=0:00:58.30    \nframe=   17 fps=0.3 q=35.6 size=     768KiB time=00:00:00.50 bitrate=12583.6kbits/s speed=0.00849x elapsed=0:00:58.86    \nframe=   17 fps=0.3 q=35.6 size=     768KiB time=00:00:00.50 bitrate=12583.6kbits/s speed=0.00842x elapsed=0:00:59.39    \nframe=   17 fps=0.3 q=35.6 size=     768KiB time=00:00:00.50 bitrate=12583.6kbits/s speed=0.00834x elapsed=0:00:59.92    \nframe=   17 fps=0.3 q=35.6 size=     768KiB time=00:00:00.50 bitrate=12583.6kbits/s speed=0.00827x elapsed=0:01:00.47    \nframe=   17 fps=0.3 q=35.6 size=     768KiB time=00:00:00.50 bitrate=12583.6kbits/s speed=0.00819x elapsed=0:01:01.03    \nframe=   17 fps=0.3 q=35.6 size=     768KiB time=00:00:00.50 bitrate=12583.6kbits/s speed=0.00812x elapsed=0:01:01.56    \nframe=   17 fps=0.3 q=35.6 size=     768KiB time=00:00:00.50 bitrate=12583.6kbits/s speed=0.00805x elapsed=0:01:02.08    \nframe=   17 fps=0.3 q=35.6 size=     768KiB time=00:00:00.50 bitrate=12583.6kbits/s speed=0.00799x elapsed=0:01:02.60    \nframe=   17 fps=0.3 q=35.6 size=     768KiB time=00:00:00.50 bitrate=12583.6kbits/s speed=0.00792x elapsed=0:01:03.13    \nframe=   17 fps=0.3 q=35.6 size=     768KiB time=00:00:00.50 bitrate=12583.6kbits/s speed=0.00785x elapsed=0:01:03.65    \nframe=   17 fps=0.3 q=35.6 size=     768KiB time=00:00:00.50 bitrate=12583.6kbits/s speed=0.00779x elapsed=0:01:04.19    \nframe=   17 fps=0.3 q=35.6 size=     768KiB time=00:00:00.50 bitrate=12583.6kbits/s speed=0.00772x elapsed=0:01:04.72    \nframe=   18 fps=0.3 q=35.5 size=     768KiB time=00:00:00.53 bitrate=11797.1kbits/s speed=0.00817x elapsed=0:01:05.25    \nframe=   18 fps=0.3 q=35.5 size=     768KiB time=00:00:00.53 bitrate=11797.1kbits/s speed=0.00811x elapsed=0:01:05.77    \nframe=   18 fps=0.3 q=35.5 size=     768KiB time=00:00:00.53 bitrate=11797.1kbits/s speed=0.00804x elapsed=0:01:06.30    \nframe=   19 fps=0.3 q=29.8 size=     768KiB time=00:00:00.56 bitrate=11103.2kbits/s speed=0.00848x elapsed=0:01:06.82    \nframe=   19 fps=0.3 q=29.8 size=     768KiB time=00:00:00.56 bitrate=11103.2kbits/s speed=0.00842x elapsed=0:01:07.33    \nframe=   20 fps=0.3 q=32.8 size=    1024KiB time=00:00:00.60 bitrate=13981.6kbits/s speed=0.00884x elapsed=0:01:07.85    \nframe=   20 fps=0.3 q=32.8 size=    1024KiB time=00:00:00.60 bitrate=13981.6kbits/s speed=0.00878x elapsed=0:01:08.36    \nframe=   20 fps=0.3 q=32.8 size=    1024KiB time=00:00:00.60 bitrate=13981.6kbits/s speed=0.00871x elapsed=0:01:08.88    \nframe=   21 fps=0.3 q=35.5 size=    1024KiB time=00:00:00.60 bitrate=13981.6kbits/s speed=0.00865x elapsed=0:01:09.39    \nframe=   21 fps=0.3 q=35.5 size=    1024KiB time=00:00:00.63 bitrate=13245.7kbits/s speed=0.00906x elapsed=0:01:09.91    \nframe=   21 fps=0.3 q=35.5 size=    1024KiB time=00:00:00.63 bitrate=13245.7kbits/s speed=0.00899x elapsed=0:01:10.45    \nframe=   21 fps=0.3 q=35.5 size=    1024KiB time=00:00:00.63 bitrate=13245.7kbits/s speed=0.00893x elapsed=0:01:10.96    \nframe=   22 fps=0.3 q=35.3 size=    1024KiB time=00:00:00.66 bitrate=12583.4kbits/s speed=0.00933x elapsed=0:01:11.48    \nframe=   22 fps=0.3 q=35.3 size=    1024KiB time=00:00:00.66 bitrate=12583.4kbits/s speed=0.00926x elapsed=0:01:11.98    \nframe=   22 fps=0.3 q=35.3 size=    1024KiB time=00:00:00.66 bitrate=12583.4kbits/s speed=0.00919x elapsed=0:01:12.50    \nframe=   23 fps=0.3 q=29.8 size=    1024KiB time=00:00:00.70 bitrate=11984.2kbits/s speed=0.00958x elapsed=0:01:13.03    \nframe=   23 fps=0.3 q=29.8 size=    1024KiB time=00:00:00.70 bitrate=11984.2kbits/s speed=0.00952x elapsed=0:01:13.53    \nframe=   24 fps=0.3 q=32.7 size=    1280KiB time=00:00:00.73 bitrate=14299.3kbits/s speed=0.0099x elapsed=0:01:14.06    \nframe=   24 fps=0.3 q=32.7 size=    1280KiB time=00:00:00.73 bitrate=14299.3kbits/s speed=0.00983x elapsed=0:01:14.56    \nframe=   25 fps=0.3 q=35.5 size=    1280KiB time=00:00:00.76 bitrate=13677.5kbits/s speed=0.0102x elapsed=0:01:15.08    \nframe=   25 fps=0.3 q=35.5 size=    1280KiB time=00:00:00.76 bitrate=13677.5kbits/s speed=0.0101x elapsed=0:01:15.60    \nframe=   25 fps=0.3 q=35.5 size=    1280KiB time=00:00:00.76 bitrate=13677.5kbits/s speed=0.0101x elapsed=0:01:16.11    \nframe=   25 fps=0.3 q=35.5 size=    1280KiB time=00:00:00.76 bitrate=13677.5kbits/s speed=0.01x elapsed=0:01:16.63    \nframe=   26 fps=0.3 q=35.5 size=    1280KiB time=00:00:00.80 bitrate=13107.6kbits/s speed=0.0104x elapsed=0:01:17.15    \nframe=   26 fps=0.3 q=35.5 size=    1280KiB time=00:00:00.80 bitrate=13107.6kbits/s speed=0.0103x elapsed=0:01:17.66    \nframe=   27 fps=0.3 q=29.8 size=    1280KiB time=00:00:00.83 bitrate=12583.3kbits/s speed=0.0107x elapsed=0:01:18.18    \nframe=   27 fps=0.3 q=29.8 size=    1280KiB time=00:00:00.83 bitrate=12583.3kbits/s speed=0.0106x elapsed=0:01:18.70    \nframe=   28 fps=0.4 q=32.8 size=    1280KiB time=00:00:00.86 bitrate=12099.4kbits/s speed=0.0109x elapsed=0:01:19.20    \nframe=   28 fps=0.4 q=32.8 size=    1280KiB time=00:00:00.86 bitrate=12099.4kbits/s speed=0.0109x elapsed=0:01:19.73    \nframe=   28 fps=0.3 q=32.8 size=    1280KiB time=00:00:00.86 bitrate=12099.4kbits/s speed=0.0108x elapsed=0:01:20.23    \nframe=   29 fps=0.4 q=35.4 size=    1536KiB time=00:00:00.90 bitrate=13981.4kbits/s speed=0.0111x elapsed=0:01:20.75    \nframe=   29 fps=0.4 q=35.4 size=    1536KiB time=00:00:00.90 bitrate=13981.4kbits/s speed=0.0111x elapsed=0:01:21.28    \nframe=   29 fps=0.4 q=35.4 size=    1536KiB time=00:00:00.90 bitrate=13981.4kbits/s speed=0.011x elapsed=0:01:21.78    \nframe=   30 fps=0.4 q=35.5 size=    1536KiB time=00:00:00.93 bitrate=13482.1kbits/s speed=0.0113x elapsed=0:01:22.30    \nframe=   30 fps=0.4 q=35.5 size=    1536KiB time=00:00:00.93 bitrate=13482.1kbits/s speed=0.0113x elapsed=0:01:22.81    \nframe=   30 fps=0.4 q=35.5 size=    1536KiB time=00:00:00.93 bitrate=13482.1kbits/s speed=0.0112x elapsed=0:01:23.33    \nframe=   31 fps=0.4 q=29.8 size=    1536KiB time=00:00:00.96 bitrate=13017.2kbits/s speed=0.0115x elapsed=0:01:23.85    \nframe=   31 fps=0.4 q=29.8 size=    1536KiB time=00:00:00.96 bitrate=13017.2kbits/s speed=0.0115x elapsed=0:01:24.36    \nframe=   32 fps=0.4 q=32.7 size=    1536KiB time=00:00:01.00 bitrate=12583.3kbits/s speed=0.0118x elapsed=0:01:24.89    \nframe=   32 fps=0.4 q=32.7 size=    1536KiB time=00:00:01.00 bitrate=12583.3kbits/s speed=0.0117x elapsed=0:01:25.39    \nframe=   32 fps=0.4 q=32.7 size=    1536KiB time=00:00:01.00 bitrate=12583.3kbits/s speed=0.0116x elapsed=0:01:25.91    \nframe=   32 fps=0.4 q=32.7 size=    1536KiB time=00:00:01.00 bitrate=12583.3kbits/s speed=0.0116x elapsed=0:01:26.43    \nframe=   33 fps=0.4 q=35.4 size=    1536KiB time=00:00:01.03 bitrate=12177.4kbits/s speed=0.0119x elapsed=0:01:26.95    \nframe=   33 fps=0.4 q=35.4 size=    1536KiB time=00:00:01.03 bitrate=12177.4kbits/s speed=0.0118x elapsed=0:01:27.46    \nframe=   34 fps=0.4 q=35.4 size=    1536KiB time=00:00:01.06 bitrate=11796.8kbits/s speed=0.0121x elapsed=0:01:27.97    \nframe=   34 fps=0.4 q=35.4 size=    1536KiB time=00:00:01.06 bitrate=11796.8kbits/s speed=0.0121x elapsed=0:01:28.49    \nframe=   34 fps=0.4 q=35.4 size=    1536KiB time=00:00:01.06 bitrate=11796.8kbits/s speed=0.012x elapsed=0:01:29.01    \nframe=   35 fps=0.4 q=29.8 size=    1536KiB time=00:00:01.10 bitrate=11439.3kbits/s speed=0.0123x elapsed=0:01:29.51    \nframe=   36 fps=0.4 q=32.8 size=    1792KiB time=00:00:01.13 bitrate=12953.3kbits/s speed=0.0126x elapsed=0:01:30.04    \nframe=   36 fps=0.4 q=32.8 size=    1792KiB time=00:00:01.13 bitrate=12953.3kbits/s speed=0.0125x elapsed=0:01:30.56    \nframe=   36 fps=0.4 q=32.8 size=    1792KiB time=00:00:01.13 bitrate=12953.3kbits/s speed=0.0124x elapsed=0:01:31.08    \nframe=   37 fps=0.4 q=35.5 size=    1792KiB time=00:00:01.16 bitrate=12583.2kbits/s speed=0.0127x elapsed=0:01:31.60    \nframe=   37 fps=0.4 q=35.5 size=    1792KiB time=00:00:01.16 bitrate=12583.2kbits/s speed=0.0127x elapsed=0:01:32.12    \nframe=   37 fps=0.4 q=35.5 size=    1792KiB time=00:00:01.16 bitrate=12583.2kbits/s speed=0.0126x elapsed=0:01:32.64    \nframe=   37 fps=0.4 q=35.5 size=    1792KiB time=00:00:01.16 bitrate=12583.2kbits/s speed=0.0125x elapsed=0:01:33.17    \nframe=   37 fps=0.4 q=35.5 size=    1792KiB time=00:00:01.16 bitrate=12583.2kbits/s speed=0.0124x elapsed=0:01:33.73    \nframe=   38 fps=0.4 q=35.5 size=    1792KiB time=00:00:01.20 bitrate=12233.7kbits/s speed=0.0127x elapsed=0:01:34.25    \nframe=   38 fps=0.4 q=35.5 size=    1792KiB time=00:00:01.20 bitrate=12233.7kbits/s speed=0.0127x elapsed=0:01:34.77    \nframe=   38 fps=0.4 q=35.5 size=    1792KiB time=00:00:01.20 bitrate=12233.7kbits/s speed=0.0126x elapsed=0:01:35.32    \nframe=   38 fps=0.4 q=35.5 size=    1792KiB time=00:00:01.20 bitrate=12233.7kbits/s speed=0.0125x elapsed=0:01:35.84    \nframe=   38 fps=0.4 q=35.5 size=    1792KiB time=00:00:01.20 bitrate=12233.7kbits/s speed=0.0125x elapsed=0:01:36.36    \nframe=   38 fps=0.4 q=35.5 size=    1792KiB time=00:00:01.20 bitrate=12233.7kbits/s speed=0.0124x elapsed=0:01:36.88    \nframe=   38 fps=0.4 q=35.5 size=    1792KiB time=00:00:01.20 bitrate=12233.7kbits/s speed=0.0123x elapsed=0:01:37.41    \nframe=   38 fps=0.4 q=35.5 size=    1792KiB time=00:00:01.20 bitrate=12233.7kbits/s speed=0.0123x elapsed=0:01:37.94    \nframe=   38 fps=0.4 q=35.5 size=    1792KiB time=00:00:01.20 bitrate=12233.7kbits/s speed=0.0122x elapsed=0:01:38.46    \nframe=   38 fps=0.4 q=35.5 size=    1792KiB time=00:00:01.20 bitrate=12233.7kbits/s speed=0.0121x elapsed=0:01:39.00    \nframe=   38 fps=0.4 q=35.5 size=    1792KiB time=00:00:01.20 bitrate=12233.7kbits/s speed=0.0121x elapsed=0:01:39.53    \nframe=   39 fps=0.4 q=29.8 size=    1792KiB time=00:00:01.23 bitrate=11903.0kbits/s speed=0.0123x elapsed=0:01:40.05    \nframe=   39 fps=0.4 q=29.8 size=    1792KiB time=00:00:01.23 bitrate=11903.0kbits/s speed=0.0123x elapsed=0:01:40.57    \nframe=   39 fps=0.4 q=29.8 size=    1792KiB time=00:00:01.23 bitrate=11903.0kbits/s speed=0.0122x elapsed=0:01:41.09    \nframe=   40 fps=0.4 q=32.8 size=    2048KiB time=00:00:01.26 bitrate=13245.4kbits/s speed=0.0125x elapsed=0:01:41.61    \nframe=   40 fps=0.4 q=32.8 size=    2048KiB time=00:00:01.26 bitrate=13245.4kbits/s speed=0.0124x elapsed=0:01:42.16    \nframe=   40 fps=0.4 q=32.8 size=    2048KiB time=00:00:01.26 bitrate=13245.4kbits/s speed=0.0123x elapsed=0:01:42.71    \nframe=   40 fps=0.4 q=32.8 size=    2048KiB time=00:00:01.26 bitrate=13245.4kbits/s speed=0.0123x elapsed=0:01:43.24    \nframe=   40 fps=0.4 q=32.8 size=    2048KiB time=00:00:01.26 bitrate=13245.4kbits/s speed=0.0122x elapsed=0:01:43.75    \nframe=   40 fps=0.4 q=32.8 size=    2048KiB time=00:00:01.26 bitrate=13245.4kbits/s speed=0.0121x elapsed=0:01:44.27    \nframe=   40 fps=0.4 q=32.8 size=    2048KiB time=00:00:01.26 bitrate=13245.4kbits/s speed=0.0121x elapsed=0:01:44.82    \nframe=   40 fps=0.4 q=32.8 size=    2048KiB time=00:00:01.26 bitrate=13245.4kbits/s speed=0.012x elapsed=0:01:45.33    \nframe=   40 fps=0.4 q=32.8 size=    2048KiB time=00:00:01.26 bitrate=13245.4kbits/s speed=0.012x elapsed=0:01:45.88    \nframe=   40 fps=0.4 q=32.8 size=    2048KiB time=00:00:01.26 bitrate=13245.4kbits/s speed=0.0119x elapsed=0:01:46.40    \nframe=   40 fps=0.4 q=32.8 size=    2048KiB time=00:00:01.26 bitrate=13245.4kbits/s speed=0.0118x elapsed=0:01:46.92    \nframe=   41 fps=0.4 q=35.6 size=    2048KiB time=00:00:01.30 bitrate=12905.8kbits/s speed=0.0121x elapsed=0:01:47.44    \nframe=   41 fps=0.4 q=35.6 size=    2048KiB time=00:00:01.30 bitrate=12905.8kbits/s speed=0.012x elapsed=0:01:47.99    \nframe=   41 fps=0.4 q=35.6 size=    2048KiB time=00:00:01.30 bitrate=12905.8kbits/s speed=0.012x elapsed=0:01:48.52    \nframe=   41 fps=0.4 q=35.6 size=    2048KiB time=00:00:01.30 bitrate=12905.8kbits/s speed=0.0119x elapsed=0:01:49.05    \nframe=   41 fps=0.4 q=35.6 size=    2048KiB time=00:00:01.30 bitrate=12905.8kbits/s speed=0.0119x elapsed=0:01:49.59    \nframe=   42 fps=0.4 q=35.5 size=    2048KiB time=00:00:01.33 bitrate=12583.2kbits/s speed=0.0121x elapsed=0:01:50.16    \nframe=   42 fps=0.4 q=35.5 size=    2048KiB time=00:00:01.33 bitrate=12583.2kbits/s speed=0.012x elapsed=0:01:50.69    \nframe=   42 fps=0.4 q=35.5 size=    2048KiB time=00:00:01.33 bitrate=12583.2kbits/s speed=0.012x elapsed=0:01:51.21    \nframe=   42 fps=0.4 q=35.5 size=    2048KiB time=00:00:01.33 bitrate=12583.2kbits/s speed=0.0119x elapsed=0:01:51.74    \nframe=   42 fps=0.4 q=35.5 size=    2048KiB time=00:00:01.33 bitrate=12583.2kbits/s speed=0.0119x elapsed=0:01:52.25    \nframe=   42 fps=0.4 q=35.5 size=    2048KiB time=00:00:01.33 bitrate=12583.2kbits/s speed=0.0118x elapsed=0:01:52.79    \nframe=   43 fps=0.4 q=29.8 size=    2048KiB time=00:00:01.36 bitrate=12276.3kbits/s speed=0.0121x elapsed=0:01:53.32    \nframe=   43 fps=0.4 q=29.8 size=    2048KiB time=00:00:01.36 bitrate=12276.3kbits/s speed=0.012x elapsed=0:01:53.86    \nframe=   43 fps=0.4 q=29.8 size=    2048KiB time=00:00:01.36 bitrate=12276.3kbits/s speed=0.0119x elapsed=0:01:54.40    \nframe=   44 fps=0.4 q=32.8 size=    2048KiB time=00:00:01.40 bitrate=11984.0kbits/s speed=0.0122x elapsed=0:01:54.92    \nframe=   44 fps=0.4 q=32.8 size=    2048KiB time=00:00:01.40 bitrate=11984.0kbits/s speed=0.0121x elapsed=0:01:55.47    \nframe=   44 fps=0.4 q=32.8 size=    2048KiB time=00:00:01.40 bitrate=11984.0kbits/s speed=0.0121x elapsed=0:01:56.00    \nframe=   44 fps=0.4 q=32.8 size=    2048KiB time=00:00:01.40 bitrate=11984.0kbits/s speed=0.012x elapsed=0:01:56.52    \nframe=   44 fps=0.4 q=32.8 size=    2048KiB time=00:00:01.40 bitrate=11984.0kbits/s speed=0.012x elapsed=0:01:57.06    \nframe=   44 fps=0.4 q=32.8 size=    2048KiB time=00:00:01.40 bitrate=11984.0kbits/s speed=0.0119x elapsed=0:01:57.58    \nframe=   44 fps=0.4 q=32.8 size=    2048KiB time=00:00:01.40 bitrate=11984.0kbits/s speed=0.0118x elapsed=0:01:58.14    \nframe=   45 fps=0.4 q=35.5 size=    2304KiB time=00:00:01.43 bitrate=13168.4kbits/s speed=0.0121x elapsed=0:01:58.68    \nframe=   45 fps=0.4 q=35.5 size=    2304KiB time=00:00:01.43 bitrate=13168.4kbits/s speed=0.012x elapsed=0:01:59.20    \nframe=   45 fps=0.4 q=35.5 size=    2304KiB time=00:00:01.43 bitrate=13168.4kbits/s speed=0.012x elapsed=0:01:59.76    \nframe=   45 fps=0.4 q=35.5 size=    2304KiB time=00:00:01.43 bitrate=13168.4kbits/s speed=0.0119x elapsed=0:02:00.28    \nframe=   45 fps=0.4 q=35.5 size=    2304KiB time=00:00:01.43 bitrate=13168.4kbits/s speed=0.0119x elapsed=0:02:00.79    \nframe=   45 fps=0.4 q=35.5 size=    2304KiB time=00:00:01.43 bitrate=13168.4kbits/s speed=0.0118x elapsed=0:02:01.34    \nframe=   45 fps=0.4 q=35.5 size=    2304KiB time=00:00:01.43 bitrate=13168.4kbits/s speed=0.0118x elapsed=0:02:01.87    \nframe=   46 fps=0.4 q=35.4 size=    2304KiB time=00:00:01.46 bitrate=12869.1kbits/s speed=0.012x elapsed=0:02:02.39    \nframe=   46 fps=0.4 q=35.4 size=    2304KiB time=00:00:01.46 bitrate=12869.1kbits/s speed=0.0119x elapsed=0:02:02.93    \nframe=   46 fps=0.4 q=35.4 size=    2304KiB time=00:00:01.46 bitrate=12869.1kbits/s speed=0.0119x elapsed=0:02:03.46    \nframe=   46 fps=0.4 q=35.4 size=    2304KiB time=00:00:01.46 bitrate=12869.1kbits/s speed=0.0118x elapsed=0:02:03.99    \nframe=   46 fps=0.4 q=35.4 size=    2304KiB time=00:00:01.46 bitrate=12869.1kbits/s speed=0.0118x elapsed=0:02:04.51    \nframe=   46 fps=0.4 q=35.4 size=    2304KiB time=00:00:01.46 bitrate=12869.1kbits/s speed=0.0117x elapsed=0:02:05.02    \nframe=   46 fps=0.4 q=35.4 size=    2304KiB time=00:00:01.46 bitrate=12869.1kbits/s speed=0.0117x elapsed=0:02:05.55    \nframe=   47 fps=0.4 q=29.8 size=    2304KiB time=00:00:01.50 bitrate=12583.1kbits/s speed=0.0119x elapsed=0:02:06.08    \nframe=   47 fps=0.4 q=29.8 size=    2304KiB time=00:00:01.50 bitrate=12583.1kbits/s speed=0.0118x elapsed=0:02:06.61    \nframe=   47 fps=0.4 q=29.8 size=    2304KiB time=00:00:01.50 bitrate=12583.1kbits/s speed=0.0118x elapsed=0:02:07.13    \nframe=   48 fps=0.4 q=32.7 size=    2304KiB time=00:00:01.53 bitrate=12309.6kbits/s speed=0.012x elapsed=0:02:07.65    \nframe=   48 fps=0.4 q=32.7 size=    2304KiB time=00:00:01.53 bitrate=12309.6kbits/s speed=0.012x elapsed=0:02:08.16    \nframe=   48 fps=0.4 q=32.7 size=    2304KiB time=00:00:01.53 bitrate=12309.6kbits/s speed=0.0119x elapsed=0:02:08.70    \nframe=   48 fps=0.4 q=32.7 size=    2304KiB time=00:00:01.53 bitrate=12309.6kbits/s speed=0.0119x elapsed=0:02:09.22    \nframe=   48 fps=0.4 q=32.7 size=    2304KiB time=00:00:01.53 bitrate=12309.6kbits/s speed=0.0118x elapsed=0:02:09.76    \nframe=   48 fps=0.4 q=32.7 size=    2304KiB time=00:00:01.53 bitrate=12309.6kbits/s speed=0.0118x elapsed=0:02:10.30    \nframe=   48 fps=0.4 q=32.7 size=    2304KiB time=00:00:01.53 bitrate=12309.6kbits/s speed=0.0117x elapsed=0:02:10.82    \nframe=   48 fps=0.4 q=32.7 size=    2304KiB time=00:00:01.53 bitrate=12309.6kbits/s speed=0.0117x elapsed=0:02:11.36    \nframe=   49 fps=0.4 q=35.5 size=    2304KiB time=00:00:01.56 bitrate=12047.7kbits/s speed=0.0119x elapsed=0:02:11.91    \nframe=   49 fps=0.4 q=35.5 size=    2304KiB time=00:00:01.56 bitrate=12047.7kbits/s speed=0.0118x elapsed=0:02:12.47    \nframe=   49 fps=0.4 q=35.5 size=    2304KiB time=00:00:01.56 bitrate=12047.7kbits/s speed=0.0118x elapsed=0:02:13.01    \nframe=   49 fps=0.4 q=35.5 size=    2304KiB time=00:00:01.56 bitrate=12047.7kbits/s speed=0.0117x elapsed=0:02:13.52    \nframe=   49 fps=0.4 q=35.5 size=    2304KiB time=00:00:01.56 bitrate=12047.7kbits/s speed=0.0117x elapsed=0:02:14.05    \nframe=   49 fps=0.4 q=35.5 size=    2304KiB time=00:00:01.56 bitrate=12047.7kbits/s speed=0.0116x elapsed=0:02:14.57    \nframe=   50 fps=0.4 q=35.5 size=    2304KiB time=00:00:01.60 bitrate=11796.7kbits/s speed=0.0118x elapsed=0:02:15.10    \nframe=   50 fps=0.4 q=35.5 size=    2304KiB time=00:00:01.60 bitrate=11796.7kbits/s speed=0.0118x elapsed=0:02:15.62    \nframe=   50 fps=0.4 q=35.5 size=    2304KiB time=00:00:01.60 bitrate=11796.7kbits/s speed=0.0118x elapsed=0:02:16.15    \nframe=   50 fps=0.4 q=35.5 size=    2304KiB time=00:00:01.60 bitrate=11796.7kbits/s speed=0.0117x elapsed=0:02:16.68    \nframe=   50 fps=0.4 q=35.5 size=    2304KiB time=00:00:01.60 bitrate=11796.7kbits/s speed=0.0117x elapsed=0:02:17.21    \nframe=   51 fps=0.4 q=29.8 size=    2304KiB time=00:00:01.63 bitrate=11556.0kbits/s speed=0.0119x elapsed=0:02:17.73    \nframe=   51 fps=0.4 q=29.8 size=    2304KiB time=00:00:01.63 bitrate=11556.0kbits/s speed=0.0118x elapsed=0:02:18.28    \nframe=   51 fps=0.4 q=29.8 size=    2304KiB time=00:00:01.63 bitrate=11556.0kbits/s speed=0.0118x elapsed=0:02:18.79    \nframe=   51 fps=0.4 q=29.8 size=    2304KiB time=00:00:01.63 bitrate=11556.0kbits/s speed=0.0117x elapsed=0:02:19.32    \nframe=   51 fps=0.4 q=29.8 size=    2304KiB time=00:00:01.63 bitrate=11556.0kbits/s speed=0.0117x elapsed=0:02:19.84    \nframe=   51 fps=0.4 q=29.8 size=    2304KiB time=00:00:01.63 bitrate=11556.0kbits/s speed=0.0116x elapsed=0:02:20.37    \nframe=   51 fps=0.4 q=29.8 size=    2304KiB time=00:00:01.63 bitrate=11556.0kbits/s speed=0.0116x elapsed=0:02:20.90    \nframe=   52 fps=0.4 q=32.8 size=    2560KiB time=00:00:01.66 bitrate=12583.1kbits/s speed=0.0118x elapsed=0:02:21.44    \nframe=   52 fps=0.4 q=32.8 size=    2560KiB time=00:00:01.66 bitrate=12583.1kbits/s speed=0.0117x elapsed=0:02:22.00    \nframe=   52 fps=0.4 q=32.8 size=    2560KiB time=00:00:01.66 bitrate=12583.1kbits/s speed=0.0117x elapsed=0:02:22.52    \nframe=   52 fps=0.4 q=32.8 size=    2560KiB time=00:00:01.66 bitrate=12583.1kbits/s speed=0.0116x elapsed=0:02:23.06    \nframe=   52 fps=0.4 q=32.8 size=    2560KiB time=00:00:01.66 bitrate=12583.1kbits/s speed=0.0116x elapsed=0:02:23.60    \nframe=   52 fps=0.4 q=32.8 size=    2560KiB time=00:00:01.66 bitrate=12583.1kbits/s speed=0.0116x elapsed=0:02:24.14    \nframe=   53 fps=0.4 q=35.5 size=    2560KiB time=00:00:01.70 bitrate=12336.4kbits/s speed=0.0117x elapsed=0:02:24.68    \nframe=   53 fps=0.4 q=35.5 size=    2560KiB time=00:00:01.70 bitrate=12336.4kbits/s speed=0.0117x elapsed=0:02:25.22    \nframe=   53 fps=0.4 q=35.5 size=    2560KiB time=00:00:01.70 bitrate=12336.4kbits/s speed=0.0117x elapsed=0:02:25.72    \nframe=   53 fps=0.4 q=35.5 size=    2560KiB time=00:00:01.70 bitrate=12336.4kbits/s speed=0.0116x elapsed=0:02:26.24    \nframe=   53 fps=0.4 q=35.5 size=    2560KiB time=00:00:01.70 bitrate=12336.4kbits/s speed=0.0116x elapsed=0:02:26.76    \nframe=   53 fps=0.4 q=35.5 size=    2560KiB time=00:00:01.70 bitrate=12336.4kbits/s speed=0.0115x elapsed=0:02:27.29    \nframe=   53 fps=0.4 q=35.5 size=    2560KiB time=00:00:01.70 bitrate=12336.4kbits/s speed=0.0115x elapsed=0:02:27.80    \nframe=   54 fps=0.4 q=35.4 size=    2560KiB time=00:00:01.73 bitrate=12099.2kbits/s speed=0.0117x elapsed=0:02:28.36    \nframe=   54 fps=0.4 q=35.4 size=    2560KiB time=00:00:01.73 bitrate=12099.2kbits/s speed=0.0116x elapsed=0:02:28.95    \nframe=   54 fps=0.4 q=35.4 size=    2560KiB time=00:00:01.73 bitrate=12099.2kbits/s speed=0.0116x elapsed=0:02:29.56    \nframe=   54 fps=0.4 q=35.4 size=    2560KiB time=00:00:01.73 bitrate=12099.2kbits/s speed=0.0115x elapsed=0:02:30.11    \nframe=   54 fps=0.4 q=35.4 size=    2560KiB time=00:00:01.73 bitrate=12099.2kbits/s speed=0.0115x elapsed=0:02:30.63    \nframe=   54 fps=0.4 q=35.4 size=    2560KiB time=00:00:01.73 bitrate=12099.2kbits/s speed=0.0115x elapsed=0:02:31.15    \nframe=   55 fps=0.4 q=29.8 size=    2560KiB time=00:00:01.76 bitrate=11870.9kbits/s speed=0.0116x elapsed=0:02:31.68    \nframe=   55 fps=0.4 q=29.8 size=    2560KiB time=00:00:01.76 bitrate=11870.9kbits/s speed=0.0116x elapsed=0:02:32.23    \nframe=   55 fps=0.4 q=29.8 size=    2560KiB time=00:00:01.76 bitrate=11870.9kbits/s speed=0.0116x elapsed=0:02:32.79    \nframe=   55 fps=0.4 q=29.8 size=    2560KiB time=00:00:01.76 bitrate=11870.9kbits/s speed=0.0115x elapsed=0:02:33.31    \nframe=   55 fps=0.4 q=29.8 size=    2560KiB time=00:00:01.76 bitrate=11870.9kbits/s speed=0.0115x elapsed=0:02:33.84    \nframe=   55 fps=0.4 q=29.8 size=    2560KiB time=00:00:01.76 bitrate=11870.9kbits/s speed=0.0114x elapsed=0:02:34.42    \nframe=   55 fps=0.4 q=29.8 size=    2560KiB time=00:00:01.76 bitrate=11870.9kbits/s speed=0.0114x elapsed=0:02:34.95    \nframe=   55 fps=0.4 q=29.8 size=    2560KiB time=00:00:01.76 bitrate=11870.9kbits/s speed=0.0114x elapsed=0:02:35.52    \nframe=   55 fps=0.4 q=29.8 size=    2560KiB time=00:00:01.76 bitrate=11870.9kbits/s speed=0.0113x elapsed=0:02:36.05    \nframe=   56 fps=0.4 q=32.3 size=    2816KiB time=00:00:01.76 bitrate=13057.9kbits/s speed=0.0113x elapsed=0:02:36.60    \nframe=   56 fps=0.4 q=32.3 size=    2816KiB time=00:00:01.80 bitrate=12816.1kbits/s speed=0.0115x elapsed=0:02:37.14    \nframe=   56 fps=0.4 q=32.3 size=    2816KiB time=00:00:01.80 bitrate=12816.1kbits/s speed=0.0114x elapsed=0:02:37.69    \nframe=   56 fps=0.4 q=32.3 size=    2816KiB time=00:00:01.80 bitrate=12816.1kbits/s speed=0.0114x elapsed=0:02:38.22    \nframe=   56 fps=0.4 q=32.3 size=    2816KiB time=00:00:01.80 bitrate=12816.1kbits/s speed=0.0113x elapsed=0:02:38.75    \nframe=   56 fps=0.4 q=32.3 size=    2816KiB time=00:00:01.80 bitrate=12816.1kbits/s speed=0.0113x elapsed=0:02:39.30    \nframe=   56 fps=0.4 q=32.3 size=    2816KiB time=00:00:01.80 bitrate=12816.1kbits/s speed=0.0113x elapsed=0:02:39.84    \nframe=   56 fps=0.3 q=32.3 size=    2816KiB time=00:00:01.80 bitrate=12816.1kbits/s speed=0.0112x elapsed=0:02:40.40    \nframe=   56 fps=0.3 q=32.3 size=    2816KiB time=00:00:01.80 bitrate=12816.1kbits/s speed=0.0112x elapsed=0:02:40.93    \nframe=   57 fps=0.4 q=35.5 size=    2816KiB time=00:00:01.83 bitrate=12583.1kbits/s speed=0.0114x elapsed=0:02:41.51    \nframe=   57 fps=0.4 q=35.5 size=    2816KiB time=00:00:01.83 bitrate=12583.1kbits/s speed=0.0113x elapsed=0:02:42.05    \nframe=   57 fps=0.4 q=35.5 size=    2816KiB time=00:00:01.83 bitrate=12583.1kbits/s speed=0.0113x elapsed=0:02:42.63    \nframe=   57 fps=0.3 q=35.5 size=    2816KiB time=00:00:01.83 bitrate=12583.1kbits/s speed=0.0112x elapsed=0:02:43.16    \nframe=   57 fps=0.3 q=35.5 size=    2816KiB time=00:00:01.83 bitrate=12583.1kbits/s speed=0.0112x elapsed=0:02:43.72    \nframe=   57 fps=0.3 q=35.5 size=    2816KiB time=00:00:01.83 bitrate=12583.1kbits/s speed=0.0112x elapsed=0:02:44.29    \nframe=   57 fps=0.3 q=35.5 size=    2816KiB time=00:00:01.83 bitrate=12583.1kbits/s speed=0.0111x elapsed=0:02:44.81    \nframe=   58 fps=0.4 q=35.4 size=    2816KiB time=00:00:01.86 bitrate=12358.4kbits/s speed=0.0113x elapsed=0:02:45.33    \nframe=   58 fps=0.3 q=35.4 size=    2816KiB time=00:00:01.86 bitrate=12358.4kbits/s speed=0.0113x elapsed=0:02:45.85    \nframe=   58 fps=0.3 q=35.4 size=    2816KiB time=00:00:01.86 bitrate=12358.4kbits/s speed=0.0112x elapsed=0:02:46.37    \nframe=   59 fps=0.4 q=29.8 size=    2816KiB time=00:00:01.90 bitrate=12141.6kbits/s speed=0.0114x elapsed=0:02:46.90    \nframe=   60 fps=0.4 q=32.7 size=    2816KiB time=00:00:01.93 bitrate=11932.3kbits/s speed=0.0115x elapsed=0:02:47.42    \nframe=   60 fps=0.4 q=32.7 size=    2816KiB time=00:00:01.93 bitrate=11932.3kbits/s speed=0.0115x elapsed=0:02:47.92    \nframe=   60 fps=0.4 q=32.7 size=    2816KiB time=00:00:01.93 bitrate=11932.3kbits/s speed=0.0115x elapsed=0:02:48.44    \nframe=   61 fps=0.4 q=35.5 size=    3072KiB time=00:00:01.96 bitrate=12796.4kbits/s speed=0.0116x elapsed=0:02:48.96    \nframe=   61 fps=0.4 q=35.5 size=    3072KiB time=00:00:01.96 bitrate=12796.4kbits/s speed=0.0116x elapsed=0:02:49.47    \nframe=   61 fps=0.4 q=35.5 size=    3072KiB time=00:00:01.96 bitrate=12796.4kbits/s speed=0.0116x elapsed=0:02:49.99    \nframe=   62 fps=0.4 q=35.6 size=    3072KiB time=00:00:02.00 bitrate=12583.1kbits/s speed=0.0117x elapsed=0:02:50.50    \nframe=   62 fps=0.4 q=35.6 size=    3072KiB time=00:00:02.00 bitrate=12583.1kbits/s speed=0.0117x elapsed=0:02:51.03    \nframe=   62 fps=0.4 q=35.6 size=    3072KiB time=00:00:02.00 bitrate=12583.1kbits/s speed=0.0117x elapsed=0:02:51.57    \nframe=   62 fps=0.4 q=35.6 size=    3072KiB time=00:00:02.00 bitrate=12583.1kbits/s speed=0.0116x elapsed=0:02:52.12    \nframe=   62 fps=0.4 q=35.6 size=    3072KiB time=00:00:02.00 bitrate=12583.1kbits/s speed=0.0116x elapsed=0:02:52.71    \nframe=   62 fps=0.4 q=35.6 size=    3072KiB time=00:00:02.00 bitrate=12583.1kbits/s speed=0.0115x elapsed=0:02:53.27    \nframe=   62 fps=0.4 q=35.6 size=    3072KiB time=00:00:02.00 bitrate=12583.1kbits/s speed=0.0115x elapsed=0:02:53.85    \nframe=   62 fps=0.4 q=35.6 size=    3072KiB time=00:00:02.00 bitrate=12583.1kbits/s speed=0.0115x elapsed=0:02:54.39    \nframe=   62 fps=0.4 q=35.6 size=    3072KiB time=00:00:02.00 bitrate=12583.1kbits/s speed=0.0114x elapsed=0:02:54.91    \nframe=   62 fps=0.4 q=35.6 size=    3072KiB time=00:00:02.00 bitrate=12583.1kbits/s speed=0.0114x elapsed=0:02:55.47    \nframe=   62 fps=0.4 q=35.6 size=    3072KiB time=00:00:02.00 bitrate=12583.1kbits/s speed=0.0114x elapsed=0:02:56.01    \nframe=   62 fps=0.4 q=35.6 size=    3072KiB time=00:00:02.00 bitrate=12583.1kbits/s speed=0.0113x elapsed=0:02:56.53    \nframe=   63 fps=0.4 q=29.8 size=    3072KiB time=00:00:02.03 bitrate=12376.8kbits/s speed=0.0115x elapsed=0:02:57.06    \nframe=   63 fps=0.4 q=29.8 size=    3072KiB time=00:00:02.03 bitrate=12376.8kbits/s speed=0.0114x elapsed=0:02:57.61    \nframe=   63 fps=0.4 q=29.8 size=    3072KiB time=00:00:02.03 bitrate=12376.8kbits/s speed=0.0114x elapsed=0:02:58.15    \nframe=   64 fps=0.4 q=32.7 size=    3072KiB time=00:00:02.06 bitrate=12177.2kbits/s speed=0.0116x elapsed=0:02:58.65    \nframe=   64 fps=0.4 q=32.7 size=    3072KiB time=00:00:02.06 bitrate=12177.2kbits/s speed=0.0115x elapsed=0:02:59.19    \nframe=   64 fps=0.4 q=32.7 size=    3072KiB time=00:00:02.06 bitrate=12177.2kbits/s speed=0.0115x elapsed=0:02:59.72    \nframe=   65 fps=0.4 q=35.5 size=    3072KiB time=00:00:02.10 bitrate=11983.9kbits/s speed=0.0117x elapsed=0:03:00.22    \nframe=   66 fps=0.4 q=35.6 size=    3072KiB time=00:00:02.13 bitrate=11796.6kbits/s speed=0.0118x elapsed=0:03:00.74    \nframe=   66 fps=0.4 q=35.6 size=    3072KiB time=00:00:02.13 bitrate=11796.6kbits/s speed=0.0118x elapsed=0:03:01.26    \nframe=   67 fps=0.4 q=29.8 size=    3072KiB time=00:00:02.16 bitrate=11615.2kbits/s speed=0.0119x elapsed=0:03:01.76    \nframe=   67 fps=0.4 q=29.8 size=    3072KiB time=00:00:02.16 bitrate=11615.2kbits/s speed=0.0119x elapsed=0:03:02.29    \nframe=   67 fps=0.4 q=29.8 size=    3072KiB time=00:00:02.16 bitrate=11615.2kbits/s speed=0.0119x elapsed=0:03:02.81    \nframe=   67 fps=0.4 q=29.8 size=    3072KiB time=00:00:02.16 bitrate=11615.2kbits/s speed=0.0118x elapsed=0:03:03.31    \nframe=   68 fps=0.4 q=32.7 size=    3328KiB time=00:00:02.20 bitrate=12392.4kbits/s speed=0.012x elapsed=0:03:03.83    \nframe=   68 fps=0.4 q=32.7 size=    3328KiB time=00:00:02.20 bitrate=12392.4kbits/s speed=0.0119x elapsed=0:03:04.36    \nframe=   69 fps=0.4 q=35.5 size=    3328KiB time=00:00:02.23 bitrate=12207.5kbits/s speed=0.0121x elapsed=0:03:04.86    \nframe=   70 fps=0.4 q=35.7 size=    3328KiB time=00:00:02.26 bitrate=12027.9kbits/s speed=0.0122x elapsed=0:03:05.38    \nframe=   70 fps=0.4 q=35.7 size=    3328KiB time=00:00:02.26 bitrate=12027.9kbits/s speed=0.0122x elapsed=0:03:05.91    \nframe=   70 fps=0.4 q=35.7 size=    3328KiB time=00:00:02.26 bitrate=12027.9kbits/s speed=0.0122x elapsed=0:03:06.43    \nframe=   70 fps=0.4 q=35.7 size=    3328KiB time=00:00:02.26 bitrate=12027.9kbits/s speed=0.0121x elapsed=0:03:06.95    \nframe=   70 fps=0.4 q=35.7 size=    3328KiB time=00:00:02.26 bitrate=12027.9kbits/s speed=0.0121x elapsed=0:03:07.46    \nframe=   70 fps=0.4 q=35.7 size=    3328KiB time=00:00:02.26 bitrate=12027.9kbits/s speed=0.0121x elapsed=0:03:07.98    \nframe=   71 fps=0.4 q=30.1 size=    3328KiB time=00:00:02.30 bitrate=11853.6kbits/s speed=0.0122x elapsed=0:03:08.48    \nframe=   71 fps=0.4 q=30.1 size=    3328KiB time=00:00:02.30 bitrate=11853.6kbits/s speed=0.0122x elapsed=0:03:09.01    \nframe=   71 fps=0.4 q=30.1 size=    3328KiB time=00:00:02.30 bitrate=11853.6kbits/s speed=0.0121x elapsed=0:03:09.53    \nframe=   72 fps=0.4 q=33.1 size=    3584KiB time=00:00:02.33 bitrate=12583.1kbits/s speed=0.0123x elapsed=0:03:10.03    \nframe=   72 fps=0.4 q=33.1 size=    3584KiB time=00:00:02.33 bitrate=12583.1kbits/s speed=0.0122x elapsed=0:03:10.55    \nframe=   73 fps=0.4 q=35.8 size=    3584KiB time=00:00:02.36 bitrate=12405.8kbits/s speed=0.0124x elapsed=0:03:11.08    \nframe=   74 fps=0.4 q=36.2 size=    3584KiB time=00:00:02.40 bitrate=12233.5kbits/s speed=0.0125x elapsed=0:03:11.58    \nframe=   74 fps=0.4 q=36.2 size=    3584KiB time=00:00:02.40 bitrate=12233.5kbits/s speed=0.0125x elapsed=0:03:12.10    \nframe=   75 fps=0.4 q=30.1 size=    3584KiB time=00:00:02.43 bitrate=12066.0kbits/s speed=0.0126x elapsed=0:03:12.61    \nframe=   75 fps=0.4 q=30.1 size=    3584KiB time=00:00:02.43 bitrate=12066.0kbits/s speed=0.0126x elapsed=0:03:13.13    \nframe=   75 fps=0.4 q=30.1 size=    3584KiB time=00:00:02.43 bitrate=12066.0kbits/s speed=0.0126x elapsed=0:03:13.65    \nframe=   76 fps=0.4 q=33.2 size=    3584KiB time=00:00:02.46 bitrate=11902.9kbits/s speed=0.0127x elapsed=0:03:14.17    \nframe=   76 fps=0.4 q=33.2 size=    3584KiB time=00:00:02.46 bitrate=11902.9kbits/s speed=0.0127x elapsed=0:03:14.69    \nframe=   77 fps=0.4 q=36.1 size=    3584KiB time=00:00:02.50 bitrate=11744.2kbits/s speed=0.0128x elapsed=0:03:15.20    \nframe=   78 fps=0.4 q=36.0 size=    3840KiB time=00:00:02.53 bitrate=12417.5kbits/s speed=0.0129x elapsed=0:03:15.72    \nframe=   78 fps=0.4 q=36.0 size=    3840KiB time=00:00:02.53 bitrate=12417.5kbits/s speed=0.0129x elapsed=0:03:16.24    \nframe=   78 fps=0.4 q=36.0 size=    3840KiB time=00:00:02.53 bitrate=12417.5kbits/s speed=0.0129x elapsed=0:03:16.75    \nframe=   79 fps=0.4 q=30.1 size=    3840KiB time=00:00:02.56 bitrate=12256.2kbits/s speed=0.013x elapsed=0:03:17.27    \nframe=   79 fps=0.4 q=30.1 size=    3840KiB time=00:00:02.56 bitrate=12256.2kbits/s speed=0.013x elapsed=0:03:17.79    \nframe=   79 fps=0.4 q=30.1 size=    3840KiB time=00:00:02.56 bitrate=12256.2kbits/s speed=0.0129x elapsed=0:03:18.30    \nframe=   80 fps=0.4 q=32.7 size=    3840KiB time=00:00:02.60 bitrate=12099.1kbits/s speed=0.0131x elapsed=0:03:18.82    \nframe=   80 fps=0.4 q=32.7 size=    3840KiB time=00:00:02.60 bitrate=12099.1kbits/s speed=0.013x elapsed=0:03:19.33    \nframe=   80 fps=0.4 q=32.7 size=    3840KiB time=00:00:02.60 bitrate=12099.1kbits/s speed=0.013x elapsed=0:03:19.85    \nframe=   81 fps=0.4 q=36.0 size=    3840KiB time=00:00:02.63 bitrate=11945.9kbits/s speed=0.0131x elapsed=0:03:20.37    \nframe=   82 fps=0.4 q=36.1 size=    3840KiB time=00:00:02.66 bitrate=11796.6kbits/s speed=0.0133x elapsed=0:03:20.88    \nframe=   82 fps=0.4 q=36.1 size=    3840KiB time=00:00:02.66 bitrate=11796.6kbits/s speed=0.0132x elapsed=0:03:21.40    \nframe=   83 fps=0.4 q=30.1 size=    3840KiB time=00:00:02.70 bitrate=11651.0kbits/s speed=0.0134x elapsed=0:03:21.92    \nframe=   83 fps=0.4 q=30.1 size=    3840KiB time=00:00:02.70 bitrate=11651.0kbits/s speed=0.0133x elapsed=0:03:22.42    \nframe=   83 fps=0.4 q=30.1 size=    3840KiB time=00:00:02.70 bitrate=11651.0kbits/s speed=0.0133x elapsed=0:03:22.95    \nframe=   83 fps=0.4 q=30.1 size=    3840KiB time=00:00:02.70 bitrate=11651.0kbits/s speed=0.0133x elapsed=0:03:23.47    \nframe=   83 fps=0.4 q=30.1 size=    3840KiB time=00:00:02.70 bitrate=11651.0kbits/s speed=0.0132x elapsed=0:03:23.99    \nframe=   83 fps=0.4 q=30.1 size=    3840KiB time=00:00:02.70 bitrate=11651.0kbits/s speed=0.0132x elapsed=0:03:24.51    \nframe=   84 fps=0.4 q=33.1 size=    4096KiB time=00:00:02.73 bitrate=12276.1kbits/s speed=0.0133x elapsed=0:03:25.05    \nframe=   84 fps=0.4 q=33.1 size=    4096KiB time=00:00:02.73 bitrate=12276.1kbits/s speed=0.0133x elapsed=0:03:25.58    \nframe=   84 fps=0.4 q=33.1 size=    4096KiB time=00:00:02.73 bitrate=12276.1kbits/s speed=0.0133x elapsed=0:03:26.10    \nframe=   84 fps=0.4 q=33.1 size=    4096KiB time=00:00:02.73 bitrate=12276.1kbits/s speed=0.0132x elapsed=0:03:26.65    \nframe=   84 fps=0.4 q=33.1 size=    4096KiB time=00:00:02.73 bitrate=12276.1kbits/s speed=0.0132x elapsed=0:03:27.18    \nframe=   85 fps=0.4 q=35.7 size=    4096KiB time=00:00:02.76 bitrate=12128.2kbits/s speed=0.0133x elapsed=0:03:27.71    \nframe=   85 fps=0.4 q=35.7 size=    4096KiB time=00:00:02.76 bitrate=12128.2kbits/s speed=0.0133x elapsed=0:03:28.25    \nframe=   85 fps=0.4 q=35.7 size=    4096KiB time=00:00:02.76 bitrate=12128.2kbits/s speed=0.0133x elapsed=0:03:28.77    \nframe=   85 fps=0.4 q=35.7 size=    4096KiB time=00:00:02.76 bitrate=12128.2kbits/s speed=0.0132x elapsed=0:03:29.29    \nframe=   86 fps=0.4 q=35.9 size=    4096KiB time=00:00:02.80 bitrate=11983.9kbits/s speed=0.0133x elapsed=0:03:29.83    \nframe=   86 fps=0.4 q=35.9 size=    4096KiB time=00:00:02.80 bitrate=11983.9kbits/s speed=0.0133x elapsed=0:03:30.35    \nframe=   86 fps=0.4 q=35.9 size=    4096KiB time=00:00:02.80 bitrate=11983.9kbits/s speed=0.0133x elapsed=0:03:30.88    \nframe=   86 fps=0.4 q=35.9 size=    4096KiB time=00:00:02.80 bitrate=11983.9kbits/s speed=0.0132x elapsed=0:03:31.40    \nframe=   86 fps=0.4 q=35.9 size=    4096KiB time=00:00:02.80 bitrate=11983.9kbits/s speed=0.0132x elapsed=0:03:31.93    \nframe=   86 fps=0.4 q=35.9 size=    4096KiB time=00:00:02.80 bitrate=11983.9kbits/s speed=0.0132x elapsed=0:03:32.46    \nframe=   86 fps=0.4 q=35.9 size=    4096KiB time=00:00:02.80 bitrate=11983.9kbits/s speed=0.0131x elapsed=0:03:33.01    \nframe=   87 fps=0.4 q=30.1 size=    4096KiB time=00:00:02.83 bitrate=11842.9kbits/s speed=0.0133x elapsed=0:03:33.52    \nframe=   87 fps=0.4 q=30.1 size=    4096KiB time=00:00:02.83 bitrate=11842.9kbits/s speed=0.0132x elapsed=0:03:34.04    \nframe=   87 fps=0.4 q=30.1 size=    4096KiB time=00:00:02.83 bitrate=11842.9kbits/s speed=0.0132x elapsed=0:03:34.57    \nframe=   87 fps=0.4 q=30.1 size=    4096KiB time=00:00:02.83 bitrate=11842.9kbits/s speed=0.0132x elapsed=0:03:35.08    \nframe=   87 fps=0.4 q=30.1 size=    4096KiB time=00:00:02.83 bitrate=11842.9kbits/s speed=0.0131x elapsed=0:03:35.60    \nframe=   87 fps=0.4 q=30.1 size=    4096KiB time=00:00:02.83 bitrate=11842.9kbits/s speed=0.0131x elapsed=0:03:36.14    \nframe=   87 fps=0.4 q=30.1 size=    4096KiB time=00:00:02.83 bitrate=11842.9kbits/s speed=0.0131x elapsed=0:03:36.66    \nframe=   87 fps=0.4 q=30.1 size=    4096KiB time=00:00:02.83 bitrate=11842.9kbits/s speed=0.013x elapsed=0:03:37.20    \nframe=   87 fps=0.4 q=30.1 size=    4096KiB time=00:00:02.83 bitrate=11842.9kbits/s speed=0.013x elapsed=0:03:37.72    \nframe=   87 fps=0.4 q=30.1 size=    4096KiB time=00:00:02.83 bitrate=11842.9kbits/s speed=0.013x elapsed=0:03:38.26    \nframe=   88 fps=0.4 q=33.0 size=    4096KiB time=00:00:02.86 bitrate=11705.2kbits/s speed=0.0131x elapsed=0:03:38.80    \nframe=   88 fps=0.4 q=33.0 size=    4096KiB time=00:00:02.86 bitrate=11705.2kbits/s speed=0.0131x elapsed=0:03:39.34    \nframe=   88 fps=0.4 q=33.0 size=    4096KiB time=00:00:02.86 bitrate=11705.2kbits/s speed=0.013x elapsed=0:03:39.85    \nframe=   88 fps=0.4 q=33.0 size=    4096KiB time=00:00:02.86 bitrate=11705.2kbits/s speed=0.013x elapsed=0:03:40.37    \nframe=   88 fps=0.4 q=33.0 size=    4096KiB time=00:00:02.86 bitrate=11705.2kbits/s speed=0.013x elapsed=0:03:40.90    \nframe=   88 fps=0.4 q=33.0 size=    4096KiB time=00:00:02.86 bitrate=11705.2kbits/s speed=0.0129x elapsed=0:03:41.43    \nframe=   88 fps=0.4 q=33.0 size=    4096KiB time=00:00:02.86 bitrate=11705.2kbits/s speed=0.0129x elapsed=0:03:41.95    \nframe=   88 fps=0.4 q=33.0 size=    4096KiB time=00:00:02.86 bitrate=11705.2kbits/s speed=0.0129x elapsed=0:03:42.47    \nframe=   88 fps=0.4 q=33.0 size=    4096KiB time=00:00:02.86 bitrate=11705.2kbits/s speed=0.0129x elapsed=0:03:43.02    \nframe=   89 fps=0.4 q=35.7 size=    4352KiB time=00:00:02.90 bitrate=12293.8kbits/s speed=0.013x elapsed=0:03:43.57    \nframe=   89 fps=0.4 q=35.7 size=    4352KiB time=00:00:02.90 bitrate=12293.8kbits/s speed=0.0129x elapsed=0:03:44.08    \nframe=   90 fps=0.4 q=35.8 size=    4352KiB time=00:00:02.93 bitrate=12154.1kbits/s speed=0.0131x elapsed=0:03:44.61    \nframe=   90 fps=0.4 q=35.8 size=    4352KiB time=00:00:02.93 bitrate=12154.1kbits/s speed=0.013x elapsed=0:03:45.16    \nframe=   90 fps=0.4 q=35.8 size=    4352KiB time=00:00:02.93 bitrate=12154.1kbits/s speed=0.013x elapsed=0:03:45.71    \nframe=   90 fps=0.4 q=35.8 size=    4352KiB time=00:00:02.93 bitrate=12154.1kbits/s speed=0.013x elapsed=0:03:46.23    \nframe=   91 fps=0.4 q=30.1 size=    4352KiB time=00:00:02.96 bitrate=12017.5kbits/s speed=0.0131x elapsed=0:03:46.77    \nframe=   91 fps=0.4 q=30.1 size=    4352KiB time=00:00:02.96 bitrate=12017.5kbits/s speed=0.0131x elapsed=0:03:47.31    \nframe=   91 fps=0.4 q=30.1 size=    4352KiB time=00:00:02.96 bitrate=12017.5kbits/s speed=0.013x elapsed=0:03:47.84    \nframe=   91 fps=0.4 q=30.1 size=    4352KiB time=00:00:02.96 bitrate=12017.5kbits/s speed=0.013x elapsed=0:03:48.35    \nframe=   91 fps=0.4 q=30.1 size=    4352KiB time=00:00:02.96 bitrate=12017.5kbits/s speed=0.013x elapsed=0:03:48.87    \nframe=   91 fps=0.4 q=30.1 size=    4352KiB time=00:00:02.96 bitrate=12017.5kbits/s speed=0.0129x elapsed=0:03:49.38    \nframe=   91 fps=0.4 q=30.1 size=    4352KiB time=00:00:02.96 bitrate=12017.5kbits/s speed=0.0129x elapsed=0:03:49.91    \nframe=   91 fps=0.4 q=30.1 size=    4352KiB time=00:00:02.96 bitrate=12017.5kbits/s speed=0.0129x elapsed=0:03:50.42    \nframe=   92 fps=0.4 q=33.1 size=    4352KiB time=00:00:03.00 bitrate=11884.0kbits/s speed=0.013x elapsed=0:03:50.94    \nframe=   92 fps=0.4 q=33.1 size=    4352KiB time=00:00:03.00 bitrate=11884.0kbits/s speed=0.013x elapsed=0:03:51.47    \nframe=   92 fps=0.4 q=33.1 size=    4352KiB time=00:00:03.00 bitrate=11884.0kbits/s speed=0.0129x elapsed=0:03:52.01    \nframe=   92 fps=0.4 q=33.1 size=    4352KiB time=00:00:03.00 bitrate=11884.0kbits/s speed=0.0129x elapsed=0:03:52.54    \nframe=   92 fps=0.4 q=33.1 size=    4352KiB time=00:00:03.00 bitrate=11884.0kbits/s speed=0.0129x elapsed=0:03:53.07    \nframe=   92 fps=0.4 q=33.1 size=    4352KiB time=00:00:03.00 bitrate=11884.0kbits/s speed=0.0128x elapsed=0:03:53.58    \nframe=   92 fps=0.4 q=33.1 size=    4352KiB time=00:00:03.00 bitrate=11884.0kbits/s speed=0.0128x elapsed=0:03:54.11    \nframe=   93 fps=0.4 q=35.5 size=    4352KiB time=00:00:03.03 bitrate=11753.4kbits/s speed=0.0129x elapsed=0:03:54.64    \nframe=   93 fps=0.4 q=35.5 size=    4352KiB time=00:00:03.03 bitrate=11753.4kbits/s speed=0.0129x elapsed=0:03:55.18    \nframe=   93 fps=0.4 q=35.5 size=    4352KiB time=00:00:03.03 bitrate=11753.4kbits/s speed=0.0129x elapsed=0:03:55.70    \nframe=   94 fps=0.4 q=35.5 size=    4608KiB time=00:00:03.06 bitrate=12309.5kbits/s speed=0.013x elapsed=0:03:56.22    \nframe=   94 fps=0.4 q=35.5 size=    4608KiB time=00:00:03.06 bitrate=12309.5kbits/s speed=0.013x elapsed=0:03:56.75    \nframe=   94 fps=0.4 q=35.5 size=    4608KiB time=00:00:03.06 bitrate=12309.5kbits/s speed=0.0129x elapsed=0:03:57.27    \nframe=   94 fps=0.4 q=35.5 size=    4608KiB time=00:00:03.06 bitrate=12309.5kbits/s speed=0.0129x elapsed=0:03:57.79    \nframe=   94 fps=0.4 q=35.5 size=    4608KiB time=00:00:03.06 bitrate=12309.5kbits/s speed=0.0129x elapsed=0:03:58.35    \nframe=   94 fps=0.4 q=35.5 size=    4608KiB time=00:00:03.06 bitrate=12309.5kbits/s speed=0.0128x elapsed=0:03:58.87    \nframe=   94 fps=0.4 q=35.5 size=    4608KiB time=00:00:03.06 bitrate=12309.5kbits/s speed=0.0128x elapsed=0:03:59.38    \nframe=   94 fps=0.4 q=35.5 size=    4608KiB time=00:00:03.06 bitrate=12309.5kbits/s speed=0.0128x elapsed=0:03:59.93    \nframe=   95 fps=0.4 q=30.1 size=    4608KiB time=00:00:03.10 bitrate=12177.1kbits/s speed=0.0129x elapsed=0:04:00.45    \nframe=   95 fps=0.4 q=30.1 size=    4608KiB time=00:00:03.10 bitrate=12177.1kbits/s speed=0.0129x elapsed=0:04:00.95    \nframe=   95 fps=0.4 q=30.1 size=    4608KiB time=00:00:03.10 bitrate=12177.1kbits/s speed=0.0128x elapsed=0:04:01.47    \nframe=   95 fps=0.4 q=30.1 size=    4608KiB time=00:00:03.10 bitrate=12177.1kbits/s speed=0.0128x elapsed=0:04:02.00    \nframe=   95 fps=0.4 q=30.1 size=    4608KiB time=00:00:03.10 bitrate=12177.1kbits/s speed=0.0128x elapsed=0:04:02.50    \nframe=   95 fps=0.4 q=30.1 size=    4608KiB time=00:00:03.10 bitrate=12177.1kbits/s speed=0.0128x elapsed=0:04:03.03    \nframe=   96 fps=0.4 q=33.0 size=    4608KiB time=00:00:03.13 bitrate=12047.6kbits/s speed=0.0129x elapsed=0:04:03.53    \nframe=   96 fps=0.4 q=33.0 size=    4608KiB time=00:00:03.13 bitrate=12047.6kbits/s speed=0.0128x elapsed=0:04:04.05    \nframe=   96 fps=0.4 q=33.0 size=    4608KiB time=00:00:03.13 bitrate=12047.6kbits/s speed=0.0128x elapsed=0:04:04.57    \nframe=   96 fps=0.4 q=33.0 size=    4608KiB time=00:00:03.13 bitrate=12047.6kbits/s speed=0.0128x elapsed=0:04:05.14    \nframe=   96 fps=0.4 q=33.0 size=    4608KiB time=00:00:03.13 bitrate=12047.6kbits/s speed=0.0128x elapsed=0:04:05.69    \nframe=   96 fps=0.4 q=33.0 size=    4608KiB time=00:00:03.13 bitrate=12047.6kbits/s speed=0.0127x elapsed=0:04:06.22    \nframe=   97 fps=0.4 q=35.6 size=    4608KiB time=00:00:03.16 bitrate=11920.8kbits/s speed=0.0128x elapsed=0:04:06.74    \nframe=   97 fps=0.4 q=35.6 size=    4608KiB time=00:00:03.16 bitrate=11920.8kbits/s speed=0.0128x elapsed=0:04:07.29    \nframe=   98 fps=0.4 q=35.6 size=    4608KiB time=00:00:03.20 bitrate=11796.6kbits/s speed=0.0129x elapsed=0:04:07.80    \nframe=   98 fps=0.4 q=35.6 size=    4608KiB time=00:00:03.20 bitrate=11796.6kbits/s speed=0.0129x elapsed=0:04:08.32    \nframe=   98 fps=0.4 q=35.6 size=    4608KiB time=00:00:03.20 bitrate=11796.6kbits/s speed=0.0129x elapsed=0:04:08.83    \nframe=   98 fps=0.4 q=35.6 size=    4608KiB time=00:00:03.20 bitrate=11796.6kbits/s speed=0.0128x elapsed=0:04:09.37    \nframe=   98 fps=0.4 q=35.6 size=    4608KiB time=00:00:03.20 bitrate=11796.6kbits/s speed=0.0128x elapsed=0:04:09.92    \nframe=   98 fps=0.4 q=35.6 size=    4608KiB time=00:00:03.20 bitrate=11796.6kbits/s speed=0.0128x elapsed=0:04:10.48    \nframe=   99 fps=0.4 q=30.0 size=    4608KiB time=00:00:03.23 bitrate=11675.0kbits/s speed=0.0129x elapsed=0:04:11.03    \nframe=   99 fps=0.4 q=30.0 size=    4608KiB time=00:00:03.23 bitrate=11675.0kbits/s speed=0.0129x elapsed=0:04:11.56    \nframe=   99 fps=0.4 q=30.0 size=    4608KiB time=00:00:03.23 bitrate=11675.0kbits/s speed=0.0128x elapsed=0:04:12.09    \nframe=   99 fps=0.4 q=30.0 size=    4608KiB time=00:00:03.23 bitrate=11675.0kbits/s speed=0.0128x elapsed=0:04:12.62    \nframe=   99 fps=0.4 q=30.0 size=    4608KiB time=00:00:03.23 bitrate=11675.0kbits/s speed=0.0128x elapsed=0:04:13.16    \nframe=   99 fps=0.4 q=30.0 size=    4608KiB time=00:00:03.23 bitrate=11675.0kbits/s speed=0.0127x elapsed=0:04:13.69    \nframe=   99 fps=0.4 q=30.0 size=    4608KiB time=00:00:03.23 bitrate=11675.0kbits/s speed=0.0127x elapsed=0:04:14.22    \nframe=   99 fps=0.4 q=30.0 size=    4608KiB time=00:00:03.23 bitrate=11675.0kbits/s speed=0.0127x elapsed=0:04:14.77    \nframe=  100 fps=0.4 q=33.0 size=    4864KiB time=00:00:03.26 bitrate=12197.8kbits/s speed=0.0128x elapsed=0:04:15.29    \nframe=  100 fps=0.4 q=33.0 size=    4864KiB time=00:00:03.26 bitrate=12197.8kbits/s speed=0.0128x elapsed=0:04:15.81    \nframe=  100 fps=0.4 q=33.0 size=    4864KiB time=00:00:03.26 bitrate=12197.8kbits/s speed=0.0127x elapsed=0:04:16.34    \nframe=  100 fps=0.4 q=33.0 size=    4864KiB time=00:00:03.26 bitrate=12197.8kbits/s speed=0.0127x elapsed=0:04:16.86    \nframe=  100 fps=0.4 q=33.0 size=    4864KiB time=00:00:03.26 bitrate=12197.8kbits/s speed=0.0127x elapsed=0:04:17.37    \nframe=  100 fps=0.4 q=33.0 size=    4864KiB time=00:00:03.26 bitrate=12197.8kbits/s speed=0.0127x elapsed=0:04:17.90    \nframe=  101 fps=0.4 q=35.6 size=    4864KiB time=00:00:03.30 bitrate=12074.6kbits/s speed=0.0128x elapsed=0:04:18.42    \nframe=  101 fps=0.4 q=35.6 size=    4864KiB time=00:00:03.30 bitrate=12074.6kbits/s speed=0.0127x elapsed=0:04:18.96    \nframe=  102 fps=0.4 q=35.7 size=    4864KiB time=00:00:03.33 bitrate=11953.9kbits/s speed=0.0128x elapsed=0:04:19.48    \nframe=  102 fps=0.4 q=35.7 size=    4864KiB time=00:00:03.33 bitrate=11953.9kbits/s speed=0.0128x elapsed=0:04:20.00    \nframe=  102 fps=0.4 q=35.7 size=    4864KiB time=00:00:03.33 bitrate=11953.9kbits/s speed=0.0128x elapsed=0:04:20.52    \nframe=  102 fps=0.4 q=35.7 size=    4864KiB time=00:00:03.33 bitrate=11953.9kbits/s speed=0.0128x elapsed=0:04:21.03    \nframe=  102 fps=0.4 q=35.7 size=    4864KiB time=00:00:03.33 bitrate=11953.9kbits/s speed=0.0127x elapsed=0:04:21.58    \nframe=  102 fps=0.4 q=35.7 size=    4864KiB time=00:00:03.33 bitrate=11953.9kbits/s speed=0.0127x elapsed=0:04:22.11    \nframe=  102 fps=0.4 q=35.7 size=    4864KiB time=00:00:03.33 bitrate=11953.9kbits/s speed=0.0127x elapsed=0:04:22.64    \nframe=  102 fps=0.4 q=35.7 size=    4864KiB time=00:00:03.33 bitrate=11953.9kbits/s speed=0.0127x elapsed=0:04:23.20    \nframe=  103 fps=0.4 q=30.0 size=    4864KiB time=00:00:03.36 bitrate=11835.5kbits/s speed=0.0128x elapsed=0:04:23.71    \nframe=  103 fps=0.4 q=30.0 size=    4864KiB time=00:00:03.36 bitrate=11835.5kbits/s speed=0.0127x elapsed=0:04:24.25    \nframe=  103 fps=0.4 q=30.0 size=    4864KiB time=00:00:03.36 bitrate=11835.5kbits/s speed=0.0127x elapsed=0:04:24.77    \nframe=  103 fps=0.4 q=30.0 size=    4864KiB time=00:00:03.36 bitrate=11835.5kbits/s speed=0.0127x elapsed=0:04:25.31    \nframe=  103 fps=0.4 q=30.0 size=    4864KiB time=00:00:03.36 bitrate=11835.5kbits/s speed=0.0127x elapsed=0:04:25.82    \nframe=  104 fps=0.4 q=33.0 size=    5120KiB time=00:00:03.40 bitrate=12336.3kbits/s speed=0.0128x elapsed=0:04:26.35    \nframe=  104 fps=0.4 q=33.0 size=    5120KiB time=00:00:03.40 bitrate=12336.3kbits/s speed=0.0127x elapsed=0:04:26.87    \nframe=  104 fps=0.4 q=33.0 size=    5120KiB time=00:00:03.40 bitrate=12336.3kbits/s speed=0.0127x elapsed=0:04:27.41    \nframe=  104 fps=0.4 q=33.0 size=    5120KiB time=00:00:03.40 bitrate=12336.3kbits/s speed=0.0127x elapsed=0:04:27.93    \nframe=  104 fps=0.4 q=33.0 size=    5120KiB time=00:00:03.40 bitrate=12336.3kbits/s speed=0.0127x elapsed=0:04:28.46    \nframe=  104 fps=0.4 q=33.0 size=    5120KiB time=00:00:03.40 bitrate=12336.3kbits/s speed=0.0126x elapsed=0:04:28.99    \nframe=  105 fps=0.4 q=35.6 size=    5120KiB time=00:00:03.43 bitrate=12216.5kbits/s speed=0.0127x elapsed=0:04:29.51    \nframe=  105 fps=0.4 q=35.6 size=    5120KiB time=00:00:03.43 bitrate=12216.5kbits/s speed=0.0127x elapsed=0:04:30.04    \nframe=  106 fps=0.4 q=35.8 size=    5120KiB time=00:00:03.46 bitrate=12099.1kbits/s speed=0.0128x elapsed=0:04:30.57    \nframe=  106 fps=0.4 q=35.8 size=    5120KiB time=00:00:03.46 bitrate=12099.1kbits/s speed=0.0128x elapsed=0:04:31.14    \nframe=  106 fps=0.4 q=35.8 size=    5120KiB time=00:00:03.46 bitrate=12099.1kbits/s speed=0.0128x elapsed=0:04:31.65    \nframe=  106 fps=0.4 q=35.8 size=    5120KiB time=00:00:03.46 bitrate=12099.1kbits/s speed=0.0127x elapsed=0:04:32.17    \nframe=  106 fps=0.4 q=35.8 size=    5120KiB time=00:00:03.46 bitrate=12099.1kbits/s speed=0.0127x elapsed=0:04:32.72    \nframe=  106 fps=0.4 q=35.8 size=    5120KiB time=00:00:03.46 bitrate=12099.1kbits/s speed=0.0127x elapsed=0:04:33.24    \nframe=  107 fps=0.4 q=30.0 size=    5120KiB time=00:00:03.50 bitrate=11983.8kbits/s speed=0.0128x elapsed=0:04:33.76    \nframe=  107 fps=0.4 q=30.0 size=    5120KiB time=00:00:03.50 bitrate=11983.8kbits/s speed=0.0128x elapsed=0:04:34.30    \nframe=  107 fps=0.4 q=30.0 size=    5120KiB time=00:00:03.50 bitrate=11983.8kbits/s speed=0.0127x elapsed=0:04:34.85    \nframe=  107 fps=0.4 q=30.0 size=    5120KiB time=00:00:03.50 bitrate=11983.8kbits/s speed=0.0127x elapsed=0:04:35.38    \nframe=  107 fps=0.4 q=30.0 size=    5120KiB time=00:00:03.50 bitrate=11983.8kbits/s speed=0.0127x elapsed=0:04:35.91    \nframe=  107 fps=0.4 q=30.0 size=    5120KiB time=00:00:03.50 bitrate=11983.8kbits/s speed=0.0127x elapsed=0:04:36.43    \nframe=  108 fps=0.4 q=33.0 size=    5120KiB time=00:00:03.53 bitrate=11870.8kbits/s speed=0.0128x elapsed=0:04:36.97    \nframe=  108 fps=0.4 q=33.0 size=    5120KiB time=00:00:03.53 bitrate=11870.8kbits/s speed=0.0127x elapsed=0:04:37.51    \nframe=  108 fps=0.4 q=33.0 size=    5120KiB time=00:00:03.53 bitrate=11870.8kbits/s speed=0.0127x elapsed=0:04:38.04    \nframe=  108 fps=0.4 q=33.0 size=    5120KiB time=00:00:03.53 bitrate=11870.8kbits/s speed=0.0127x elapsed=0:04:38.57    \nframe=  108 fps=0.4 q=33.0 size=    5120KiB time=00:00:03.53 bitrate=11870.8kbits/s speed=0.0127x elapsed=0:04:39.08    \nframe=  109 fps=0.4 q=35.6 size=    5376KiB time=00:00:03.56 bitrate=12347.8kbits/s speed=0.0128x elapsed=0:04:39.60    \nframe=  109 fps=0.4 q=35.6 size=    5376KiB time=00:00:03.56 bitrate=12347.8kbits/s speed=0.0127x elapsed=0:04:40.14    \nframe=  110 fps=0.4 q=35.7 size=    5376KiB time=00:00:03.60 bitrate=12233.5kbits/s speed=0.0128x elapsed=0:04:40.68    \nframe=  110 fps=0.4 q=35.7 size=    5376KiB time=00:00:03.60 bitrate=12233.5kbits/s speed=0.0128x elapsed=0:04:41.20    \nframe=  110 fps=0.4 q=35.7 size=    5376KiB time=00:00:03.60 bitrate=12233.5kbits/s speed=0.0128x elapsed=0:04:41.72    \nframe=  111 fps=0.4 q=30.1 size=    5376KiB time=00:00:03.63 bitrate=12121.3kbits/s speed=0.0129x elapsed=0:04:42.24    \nframe=  111 fps=0.4 q=30.1 size=    5376KiB time=00:00:03.63 bitrate=12121.3kbits/s speed=0.0128x elapsed=0:04:42.75    \nframe=  111 fps=0.4 q=30.1 size=    5376KiB time=00:00:03.63 bitrate=12121.3kbits/s speed=0.0128x elapsed=0:04:43.27    \nframe=  111 fps=0.4 q=30.1 size=    5376KiB time=00:00:03.63 bitrate=12121.3kbits/s speed=0.0128x elapsed=0:04:43.79    \nframe=  111 fps=0.4 q=30.1 size=    5376KiB time=00:00:03.63 bitrate=12121.3kbits/s speed=0.0128x elapsed=0:04:44.31    \nframe=  111 fps=0.4 q=30.1 size=    5376KiB time=00:00:03.63 bitrate=12121.3kbits/s speed=0.0128x elapsed=0:04:44.84    \nframe=  112 fps=0.4 q=34.3 size=    5376KiB time=00:00:03.66 bitrate=12011.1kbits/s speed=0.0128x elapsed=0:04:45.34    \nframe=  112 fps=0.4 q=34.3 size=    5376KiB time=00:00:03.66 bitrate=12011.1kbits/s speed=0.0128x elapsed=0:04:45.87    \nframe=  113 fps=0.4 q=35.4 size=    5376KiB time=00:00:03.70 bitrate=11902.8kbits/s speed=0.0129x elapsed=0:04:46.39    \nframe=  114 fps=0.4 q=35.6 size=    5376KiB time=00:00:03.73 bitrate=11796.6kbits/s speed=0.013x elapsed=0:04:46.89    \nframe=  114 fps=0.4 q=35.6 size=    5376KiB time=00:00:03.73 bitrate=11796.6kbits/s speed=0.013x elapsed=0:04:47.41    \nframe=  115 fps=0.4 q=35.5 size=    5376KiB time=00:00:03.76 bitrate=11692.2kbits/s speed=0.0131x elapsed=0:04:47.92    \nframe=  115 fps=0.4 q=35.5 size=    5376KiB time=00:00:03.76 bitrate=11692.2kbits/s speed=0.0131x elapsed=0:04:48.44    \nframe=  116 fps=0.4 q=30.0 size=    5632KiB time=00:00:03.80 bitrate=12141.5kbits/s speed=0.0132x elapsed=0:04:48.96    \nframe=  116 fps=0.4 q=30.0 size=    5632KiB time=00:00:03.80 bitrate=12141.5kbits/s speed=0.0131x elapsed=0:04:49.47    \nframe=  117 fps=0.4 q=32.9 size=    5632KiB time=00:00:03.83 bitrate=12035.9kbits/s speed=0.0132x elapsed=0:04:49.99    \nframe=  117 fps=0.4 q=32.9 size=    5632KiB time=00:00:03.83 bitrate=12035.9kbits/s speed=0.0132x elapsed=0:04:50.51    \nframe=  118 fps=0.4 q=35.4 size=    5632KiB time=00:00:03.86 bitrate=11932.2kbits/s speed=0.0133x elapsed=0:04:51.02    \nframe=  119 fps=0.4 q=35.4 size=    5632KiB time=00:00:03.90 bitrate=11830.2kbits/s speed=0.0134x elapsed=0:04:51.54    \nframe=  119 fps=0.4 q=35.4 size=    5632KiB time=00:00:03.90 bitrate=11830.2kbits/s speed=0.0134x elapsed=0:04:52.05    \nframe=  120 fps=0.4 q=30.0 size=    5632KiB time=00:00:03.93 bitrate=11729.9kbits/s speed=0.0134x elapsed=0:04:52.57    \nframe=  120 fps=0.4 q=30.0 size=    5632KiB time=00:00:03.93 bitrate=11729.9kbits/s speed=0.0134x elapsed=0:04:53.09    \nframe=  121 fps=0.4 q=32.9 size=    5888KiB time=00:00:03.96 bitrate=12160.0kbits/s speed=0.0135x elapsed=0:04:53.62    \nframe=  121 fps=0.4 q=32.9 size=    5888KiB time=00:00:03.96 bitrate=12160.0kbits/s speed=0.0135x elapsed=0:04:54.13    \nframe=  122 fps=0.4 q=35.4 size=    5888KiB time=00:00:04.00 bitrate=12058.7kbits/s speed=0.0136x elapsed=0:04:54.65    \nframe=  123 fps=0.4 q=35.5 size=    5888KiB time=00:00:04.03 bitrate=11959.1kbits/s speed=0.0137x elapsed=0:04:55.17    \nframe=  123 fps=0.4 q=35.5 size=    5888KiB time=00:00:04.03 bitrate=11959.1kbits/s speed=0.0136x elapsed=0:04:55.67    \nframe=  124 fps=0.4 q=30.1 size=    5888KiB time=00:00:04.06 bitrate=11861.0kbits/s speed=0.0137x elapsed=0:04:56.20    \nframe=  124 fps=0.4 q=30.1 size=    5888KiB time=00:00:04.06 bitrate=11861.0kbits/s speed=0.0137x elapsed=0:04:56.70    \nframe=  124 fps=0.4 q=30.1 size=    5888KiB time=00:00:04.06 bitrate=11861.0kbits/s speed=0.0137x elapsed=0:04:57.23    \nframe=  125 fps=0.4 q=32.9 size=    5888KiB time=00:00:04.10 bitrate=11764.6kbits/s speed=0.0138x elapsed=0:04:57.75    \nframe=  126 fps=0.4 q=35.5 size=    6144KiB time=00:00:04.13 bitrate=12177.1kbits/s speed=0.0139x elapsed=0:04:58.25    \nframe=  126 fps=0.4 q=35.5 size=    6144KiB time=00:00:04.13 bitrate=12177.1kbits/s speed=0.0138x elapsed=0:04:58.77    \nframe=  127 fps=0.4 q=35.4 size=    6144KiB time=00:00:04.16 bitrate=12079.7kbits/s speed=0.0139x elapsed=0:04:59.29    \nframe=  128 fps=0.4 q=30.1 size=    6144KiB time=00:00:04.20 bitrate=11983.8kbits/s speed=0.014x elapsed=0:04:59.81    \nframe=  128 fps=0.4 q=30.1 size=    6144KiB time=00:00:04.20 bitrate=11983.8kbits/s speed=0.014x elapsed=0:05:00.33    \nframe=  128 fps=0.4 q=30.1 size=    6144KiB time=00:00:04.20 bitrate=11983.8kbits/s speed=0.014x elapsed=0:05:00.84    \nframe=  129 fps=0.4 q=32.9 size=    6144KiB time=00:00:04.23 bitrate=11889.4kbits/s speed=0.014x elapsed=0:05:01.36    \nframe=  130 fps=0.4 q=35.3 size=    6144KiB time=00:00:04.26 bitrate=11796.6kbits/s speed=0.0141x elapsed=0:05:01.89    \nframe=  131 fps=0.4 q=35.3 size=    6400KiB time=00:00:04.30 bitrate=12192.8kbits/s speed=0.0142x elapsed=0:05:02.39    \nframe=  131 fps=0.4 q=35.3 size=    6400KiB time=00:00:04.30 bitrate=12192.8kbits/s speed=0.0142x elapsed=0:05:02.91    \nframe=  132 fps=0.4 q=30.0 size=    6400KiB time=00:00:04.33 bitrate=12099.0kbits/s speed=0.0143x elapsed=0:05:03.43    \nframe=  132 fps=0.4 q=30.0 size=    6400KiB time=00:00:04.33 bitrate=12099.0kbits/s speed=0.0143x elapsed=0:05:03.94    \nframe=  133 fps=0.4 q=32.9 size=    6400KiB time=00:00:04.36 bitrate=12006.7kbits/s speed=0.0143x elapsed=0:05:04.46    \nframe=  133 fps=0.4 q=32.9 size=    6400KiB time=00:00:04.36 bitrate=12006.7kbits/s speed=0.0143x elapsed=0:05:04.98    \nframe=  134 fps=0.4 q=35.3 size=    6400KiB time=00:00:04.40 bitrate=11915.7kbits/s speed=0.0144x elapsed=0:05:05.49    \nframe=  135 fps=0.4 q=35.5 size=    6400KiB time=00:00:04.43 bitrate=11826.1kbits/s speed=0.0145x elapsed=0:05:06.01    \nframe=  136 fps=0.4 q=30.2 size=    6400KiB time=00:00:04.46 bitrate=11737.9kbits/s speed=0.0146x elapsed=0:05:06.52    \nframe=  136 fps=0.4 q=30.2 size=    6400KiB time=00:00:04.46 bitrate=11737.9kbits/s speed=0.0145x elapsed=0:05:07.04    \nframe=  137 fps=0.4 q=34.2 size=    6656KiB time=00:00:04.50 bitrate=12117.0kbits/s speed=0.0146x elapsed=0:05:07.56    \nframe=  137 fps=0.4 q=34.2 size=    6656KiB time=00:00:04.50 bitrate=12117.0kbits/s speed=0.0146x elapsed=0:05:08.07    \nframe=  138 fps=0.4 q=35.3 size=    6656KiB time=00:00:04.53 bitrate=12027.9kbits/s speed=0.0147x elapsed=0:05:08.59    \nframe=  138 fps=0.4 q=35.3 size=    6656KiB time=00:00:04.53 bitrate=12027.9kbits/s speed=0.0147x elapsed=0:05:09.09    \nframe=  140 fps=0.5 q=35.5 size=    6656KiB time=00:00:04.60 bitrate=11853.5kbits/s speed=0.0149x elapsed=0:05:09.61    \nframe=  140 fps=0.5 q=35.5 size=    6656KiB time=00:00:04.60 bitrate=11853.5kbits/s speed=0.0148x elapsed=0:05:10.14    \nframe=  141 fps=0.5 q=30.6 size=    6656KiB time=00:00:04.63 bitrate=11768.3kbits/s speed=0.0149x elapsed=0:05:10.64    \nframe=  141 fps=0.5 q=30.6 size=    6656KiB time=00:00:04.63 bitrate=11768.3kbits/s speed=0.0149x elapsed=0:05:11.17    \nframe=  142 fps=0.5 q=34.1 size=    6912KiB time=00:00:04.66 bitrate=12133.6kbits/s speed=0.015x elapsed=0:05:11.67    \nframe=  142 fps=0.5 q=34.1 size=    6912KiB time=00:00:04.66 bitrate=12133.6kbits/s speed=0.0149x elapsed=0:05:12.19    \nframe=  143 fps=0.5 q=35.4 size=    6912KiB time=00:00:04.70 bitrate=12047.5kbits/s speed=0.015x elapsed=0:05:12.70    \nframe=  143 fps=0.5 q=35.4 size=    6912KiB time=00:00:04.70 bitrate=12047.5kbits/s speed=0.015x elapsed=0:05:13.23    \nframe=  144 fps=0.5 q=35.4 size=    6912KiB time=00:00:04.73 bitrate=11962.7kbits/s speed=0.0151x elapsed=0:05:13.75    \nframe=  145 fps=0.5 q=35.3 size=    6912KiB time=00:00:04.76 bitrate=11879.0kbits/s speed=0.0152x elapsed=0:05:14.25    \nframe=  146 fps=0.5 q=32.7 size=    6912KiB time=00:00:04.80 bitrate=11796.6kbits/s speed=0.0152x elapsed=0:05:14.77    \nframe=  146 fps=0.5 q=32.7 size=    6912KiB time=00:00:04.80 bitrate=11796.6kbits/s speed=0.0152x elapsed=0:05:15.28    \nframe=  147 fps=0.5 q=32.6 size=    6912KiB time=00:00:04.83 bitrate=11715.2kbits/s speed=0.0153x elapsed=0:05:15.81    \nframe=  147 fps=0.5 q=32.6 size=    6912KiB time=00:00:04.83 bitrate=11715.2kbits/s speed=0.0153x elapsed=0:05:16.31    \nframe=  149 fps=0.5 q=35.2 size=    7168KiB time=00:00:04.90 bitrate=11983.8kbits/s speed=0.0155x elapsed=0:05:16.83    \n[mp4 @ 00000289869715c0] Starting second pass: moving the moov atom to the beginning of the file\n[out#0/mp4 @ 000002898696ac80] video:7299KiB audio:0KiB subtitle:0KiB other streams:0KiB global headers:2KiB muxing overhead: 0.071538%\nframe=  150 fps=0.5 q=35.2 Lsize=    7304KiB time=00:00:04.93 bitrate=12129.2kbits/s speed=0.0156x elapsed=0:05:16.88    \nx265 [info]: frame I:      1, Avg QP:25.75  kb/s: 50292.96\nx265 [info]: frame P:     36, Avg QP:30.02  kb/s: 25232.15\nx265 [info]: frame B:    113, Avg QP:34.72  kb/s: 7389.76 \nx265 [info]: Weighted P-Frames: Y:0.0% UV:0.0%\n\nencoded 150 frames in 316.04s (0.47 fps), 11957.95 kb/s, Avg QP:33.53\n",
  "seconds": 317.54329347610474,
  "probe_out": {}
}